<svg width="39" height="35" viewBox="0 0 39 35" fill="none" xmlns="http://www.w3.org/2000/svg">
<rect x="23" y="19" width="15.36" height="16" rx="3.3" fill="#F2F4F7"/>
<path d="M27.3203 27.1076L30.9189 29.2833V25.4326L27.3203 27.1076Z" fill="white" fill-opacity="0.602"/>
<g opacity="0.6">
<mask id="mask0_7019_292954" style="mask-type:luminance" maskUnits="userSpaceOnUse" x="26" y="25" width="9" height="5">
<g opacity="0.6">
<path d="M26.8398 25.2646H34.6964V29.544H26.8398V25.2646Z" fill="white"/>
</g>
</mask>
<g mask="url(#mask0_7019_292954)">
<path d="M30.7689 25.2646L26.8398 27.126L30.7689 29.544L34.6964 27.126L30.7689 25.2646Z" fill="#010101"/>
</g>
</g>
<g opacity="0.45">
<mask id="mask1_7019_292954" style="mask-type:luminance" maskUnits="userSpaceOnUse" x="26" y="20" width="5" height="10">
<g opacity="0.45">
<path d="M26.8398 20.333H30.7689V29.5417H26.8398V20.333Z" fill="white"/>
</g>
</mask>
<g mask="url(#mask1_7019_292954)">
<path d="M26.8398 27.1237L30.7689 29.5417V20.333L26.8398 27.1237Z" fill="#010101"/>
</g>
</g>
<g opacity="0.8">
<mask id="mask2_7019_292954" style="mask-type:luminance" maskUnits="userSpaceOnUse" x="30" y="20" width="5" height="10">
<g opacity="0.8">
<path d="M30.7734 20.333H34.7025V29.5417H30.7734V20.333Z" fill="white"/>
</g>
</mask>
<g mask="url(#mask2_7019_292954)">
<path d="M30.7734 20.333V29.5417L34.7009 27.1237L30.7734 20.333Z" fill="#010101"/>
</g>
</g>
<g opacity="0.45">
<mask id="mask3_7019_292954" style="mask-type:luminance" maskUnits="userSpaceOnUse" x="26" y="27" width="5" height="7">
<g opacity="0.45">
<path d="M26.8398 27.9014H30.7689V33.6672H26.8398V27.9014Z" fill="white"/>
</g>
</mask>
<g mask="url(#mask3_7019_292954)">
<path d="M26.8398 27.9014L30.7689 33.6673V30.3194L26.8398 27.9014Z" fill="#010101"/>
</g>
</g>
<g opacity="0.8">
<mask id="mask4_7019_292954" style="mask-type:luminance" maskUnits="userSpaceOnUse" x="30" y="27" width="5" height="7">
<g opacity="0.8">
<path d="M30.7734 27.9014H34.704V33.6672H30.7734V27.9014Z" fill="white"/>
</g>
</mask>
<g mask="url(#mask4_7019_292954)">
<path d="M30.7734 30.3194V33.6672L34.704 27.9014L30.7734 30.3194Z" fill="#010101"/>
</g>
</g>
<g style="mix-blend-mode:overlay">
<path d="M32 16C32 7.16344 24.8366 0 16 0C7.16344 0 0 7.16344 0 16C0 24.8366 7.16344 32 16 32C24.8366 32 32 24.8366 32 16Z" fill="#9999E3" fill-opacity="0.25"/>
</g>
<mask id="mask5_7019_292954" style="mask-type:luminance" maskUnits="userSpaceOnUse" x="8" y="8" width="16" height="16">
<path d="M24 8H8V24H24V8Z" fill="white"/>
</mask>
<g mask="url(#mask5_7019_292954)">
<mask id="mask6_7019_292954" style="mask-type:luminance" maskUnits="userSpaceOnUse" x="8" y="8" width="16" height="16">
<path d="M24 8H8V24H24V8Z" fill="white"/>
</mask>
<g mask="url(#mask6_7019_292954)">
<path d="M23.2627 18.9742C23.1981 19.1777 23.0903 19.3649 22.9467 19.5229C22.8031 19.681 22.6271 19.8063 22.4307 19.8901L14.3376 23.3507L14.1583 23.2655C11.9503 22.2172 10.9009 21.7079 10.3921 21.4504C10.1331 21.3193 10.0943 21.0061 10.2977 20.7989C10.4471 20.6467 10.6781 20.6095 10.8691 20.7043C11.628 21.0807 13.2167 21.8421 14.3567 22.3834L22.0852 19.0785C22.1651 19.0445 22.2367 18.9936 22.2951 18.9293C22.3534 18.865 22.3973 18.7889 22.4235 18.7061C22.4497 18.6233 22.4578 18.5359 22.4471 18.4497C22.4364 18.3635 22.4073 18.2807 22.3616 18.2068C22.2867 18.0845 22.1705 17.9931 22.0341 17.9489C21.8977 17.9047 21.7501 17.9107 21.6177 17.9657L15.7328 20.387L13.3128 19.1536C13.0961 19.0431 13.0099 18.7779 13.1203 18.5611C13.2308 18.3443 13.4961 18.2581 13.7129 18.3686L15.7725 19.4181L16.7913 18.9977C16.6313 18.6737 16.4226 18.3763 16.1723 18.1156C14.5757 16.4587 11.6318 16.2694 9.74933 17.6242C9.582 17.7446 9.36214 17.7743 9.17729 17.683L8.86083 17.5267C8.74824 17.4711 8.71005 17.3262 8.80848 17.2483C10.9857 15.2974 14.7978 15.4194 16.8075 17.5026C17.1348 17.8434 17.4053 18.2345 17.6087 18.6611L21.281 17.1497C21.5426 17.0419 21.8296 17.011 22.1081 17.0607C22.3867 17.1104 22.6453 17.2386 22.8535 17.4303C23.0616 17.6219 23.2107 17.869 23.2833 18.1425C23.3557 18.4161 23.3487 18.7046 23.2627 18.9742Z" fill="white" stroke="white" stroke-width="0.1"/>
<path d="M21.2055 13.8693C21.207 14.8089 20.953 15.7298 20.4726 16.5341C20.403 16.6507 20.2755 16.7185 20.1397 16.7185C19.7942 16.7185 19.5948 16.2978 19.7644 15.9967C19.9613 15.647 20.1096 15.2703 20.2036 14.8772C20.3664 14.1958 20.3618 13.4851 20.1901 12.8058C20.0184 12.1266 19.6845 11.4991 19.2173 10.977C18.7501 10.455 18.1634 10.0539 17.5073 9.80809C16.8513 9.5623 16.1454 9.47914 15.4502 9.56571C14.755 9.65228 14.091 9.90602 13.5153 10.3052C12.9395 10.7044 12.4691 11.2371 12.1442 11.8578C11.8193 12.4786 11.6496 13.1687 11.6497 13.8693C11.6493 14.1383 11.6744 14.4062 11.7243 14.6696C11.7788 14.9577 11.5719 15.2469 11.2787 15.2469C11.0862 15.2469 10.9155 15.1187 10.8761 14.9302C10.8032 14.5816 10.7668 14.2261 10.7676 13.8693C10.7676 12.4852 11.3174 11.1577 12.2962 10.179C13.2749 9.20024 14.6024 8.65039 15.9866 8.65039C17.3707 8.65039 18.6981 9.20024 19.6769 10.179C20.6556 11.1577 21.2055 12.4852 21.2055 13.8693Z" fill="white" stroke="white" stroke-width="0.1"/>
<path d="M14.7354 13.9062H14.1621C14.2089 14.6987 14.9576 15.3877 16.2855 15.3877C17.6076 15.3877 18.4499 14.7453 18.4499 13.9165C18.4499 12.3418 15.7649 12.4298 15.7649 11.5181C15.7649 11.2643 15.9814 10.9639 16.4844 10.9639C17.046 10.9639 17.707 11.3524 17.7538 11.8497H18.3212C18.2627 11.0468 17.3794 10.4873 16.2563 10.4873C15.0922 10.4873 14.2148 11.0882 14.2148 11.9377C14.2148 13.5591 16.8998 13.3467 16.8998 14.3465C16.8998 14.6573 16.6833 14.9163 16.1393 14.9163C15.4607 14.9163 14.7763 14.4967 14.7354 13.9062ZM15.215 11.6373C15.215 12.8702 17.8766 12.6267 17.8766 13.9424C17.8766 14.3361 17.5842 14.6832 17.2332 14.7713C17.356 14.6677 17.4496 14.4397 17.4496 14.2222C17.4496 13.0048 14.7822 13.1706 14.7822 11.9222C14.7822 11.5026 15.0864 11.1659 15.4666 11.0623C15.3203 11.2177 15.215 11.4197 15.215 11.6373Z" fill="white" stroke="white" stroke-width="0.1"/>
</g>
</g>
</svg>
