<svg width="39" height="35" viewBox="0 0 39 35" fill="none" xmlns="http://www.w3.org/2000/svg">
<rect width="32" height="32" rx="16" fill="white" fill-opacity="0.25" style="mix-blend-mode:overlay"/>
<g clip-path="url(#clip0_5921_152365)">
<path fill-rule="evenodd" clip-rule="evenodd" d="M16.5296 9.0849C16.2367 8.79201 15.7619 8.79201 15.469 9.0849L9.08295 15.4709C8.79006 15.7638 8.79006 16.2387 9.08295 16.5316L15.469 22.9176C15.7619 23.2105 16.2367 23.2105 16.5296 22.9176L22.9157 16.5316C23.2085 16.2387 23.2085 15.7638 22.9157 15.4709L16.5296 9.0849ZM11.3752 15.3L15.9993 10.6759L20.6234 15.3H11.3752ZM11.3727 16.7L15.9993 21.3266L20.6259 16.7H11.3727Z" fill="white"/>
</g>
<rect x="23" y="19" width="15.36" height="16" rx="3.3" fill="#F2F4F7"/>
<path d="M27.3203 27.1076L30.9189 29.2833V25.4326L27.3203 27.1076Z" fill="white" fill-opacity="0.602"/>
<g opacity="0.6">
<mask id="mask0_5921_152365" style="mask-type:luminance" maskUnits="userSpaceOnUse" x="26" y="25" width="9" height="5">
<g opacity="0.6">
<path d="M26.8398 25.2637H34.6964V29.5431H26.8398V25.2637Z" fill="white"/>
</g>
</mask>
<g mask="url(#mask0_5921_152365)">
<path d="M30.7689 25.2637L26.8398 27.1251L30.7689 29.5431L34.6964 27.1251L30.7689 25.2637Z" fill="#010101"/>
</g>
</g>
<g opacity="0.45">
<mask id="mask1_5921_152365" style="mask-type:luminance" maskUnits="userSpaceOnUse" x="26" y="20" width="5" height="10">
<g opacity="0.45">
<path d="M26.8398 20.333H30.7689V29.5417H26.8398V20.333Z" fill="white"/>
</g>
</mask>
<g mask="url(#mask1_5921_152365)">
<path d="M26.8398 27.1237L30.7689 29.5417V20.333L26.8398 27.1237Z" fill="#010101"/>
</g>
</g>
<g opacity="0.8">
<mask id="mask2_5921_152365" style="mask-type:luminance" maskUnits="userSpaceOnUse" x="30" y="20" width="5" height="10">
<g opacity="0.8">
<path d="M30.7715 20.333H34.7005V29.5417H30.7715V20.333Z" fill="white"/>
</g>
</mask>
<g mask="url(#mask2_5921_152365)">
<path d="M30.7715 20.333V29.5417L34.699 27.1237L30.7715 20.333Z" fill="#010101"/>
</g>
</g>
<g opacity="0.45">
<mask id="mask3_5921_152365" style="mask-type:luminance" maskUnits="userSpaceOnUse" x="26" y="27" width="5" height="7">
<g opacity="0.45">
<path d="M26.8398 27.9014H30.7689V33.6672H26.8398V27.9014Z" fill="white"/>
</g>
</mask>
<g mask="url(#mask3_5921_152365)">
<path d="M26.8398 27.9014L30.7689 33.6673V30.3194L26.8398 27.9014Z" fill="#010101"/>
</g>
</g>
<g opacity="0.8">
<mask id="mask4_5921_152365" style="mask-type:luminance" maskUnits="userSpaceOnUse" x="30" y="27" width="5" height="7">
<g opacity="0.8">
<path d="M30.7715 27.9014H34.702V33.6672H30.7715V27.9014Z" fill="white"/>
</g>
</mask>
<g mask="url(#mask4_5921_152365)">
<path d="M30.7715 30.3194V33.6672L34.702 27.9014L30.7715 30.3194Z" fill="#010101"/>
</g>
</g>
<defs>
<clipPath id="clip0_5921_152365">
<rect width="16" height="16" fill="white" transform="translate(8 8)"/>
</clipPath>
</defs>
</svg>
