<svg width="39" height="35" viewBox="0 0 39 35" fill="none" xmlns="http://www.w3.org/2000/svg">
<rect x="23" y="19" width="15.36" height="16" rx="3.3" fill="#F2F4F7"/>
<path d="M27.3203 27.1076L30.9189 29.2833V25.4326L27.3203 27.1076Z" fill="white" fill-opacity="0.602"/>
<g opacity="0.6">
<mask id="mask0_7019_293074" style="mask-type:luminance" maskUnits="userSpaceOnUse" x="26" y="25" width="9" height="5">
<g opacity="0.6">
<path d="M26.8398 25.2646H34.6964V29.544H26.8398V25.2646Z" fill="white"/>
</g>
</mask>
<g mask="url(#mask0_7019_293074)">
<path d="M30.7689 25.2646L26.8398 27.126L30.7689 29.544L34.6964 27.126L30.7689 25.2646Z" fill="#010101"/>
</g>
</g>
<g opacity="0.45">
<mask id="mask1_7019_293074" style="mask-type:luminance" maskUnits="userSpaceOnUse" x="26" y="20" width="5" height="10">
<g opacity="0.45">
<path d="M26.8398 20.333H30.7689V29.5417H26.8398V20.333Z" fill="white"/>
</g>
</mask>
<g mask="url(#mask1_7019_293074)">
<path d="M26.8398 27.1237L30.7689 29.5417V20.333L26.8398 27.1237Z" fill="#010101"/>
</g>
</g>
<g opacity="0.8">
<mask id="mask2_7019_293074" style="mask-type:luminance" maskUnits="userSpaceOnUse" x="30" y="20" width="5" height="10">
<g opacity="0.8">
<path d="M30.7734 20.333H34.7025V29.5417H30.7734V20.333Z" fill="white"/>
</g>
</mask>
<g mask="url(#mask2_7019_293074)">
<path d="M30.7734 20.333V29.5417L34.7009 27.1237L30.7734 20.333Z" fill="#010101"/>
</g>
</g>
<g opacity="0.45">
<mask id="mask3_7019_293074" style="mask-type:luminance" maskUnits="userSpaceOnUse" x="26" y="27" width="5" height="7">
<g opacity="0.45">
<path d="M26.8398 27.9014H30.7689V33.6672H26.8398V27.9014Z" fill="white"/>
</g>
</mask>
<g mask="url(#mask3_7019_293074)">
<path d="M26.8398 27.9014L30.7689 33.6673V30.3194L26.8398 27.9014Z" fill="#010101"/>
</g>
</g>
<g opacity="0.8">
<mask id="mask4_7019_293074" style="mask-type:luminance" maskUnits="userSpaceOnUse" x="30" y="27" width="5" height="7">
<g opacity="0.8">
<path d="M30.7734 27.9014H34.704V33.6672H30.7734V27.9014Z" fill="white"/>
</g>
</mask>
<g mask="url(#mask4_7019_293074)">
<path d="M30.7734 30.3194V33.6672L34.704 27.9014L30.7734 30.3194Z" fill="#010101"/>
</g>
</g>
<g style="mix-blend-mode:overlay">
<path d="M32 16C32 7.16344 24.8366 0 16 0C7.16344 0 0 7.16344 0 16C0 24.8366 7.16344 32 16 32C24.8366 32 32 24.8366 32 16Z" fill="#9999E3" fill-opacity="0.25"/>
</g>
<path d="M18.7256 16.4646C19.3447 15.9129 19.7811 15.187 19.977 14.3828C20.1729 13.5786 20.1191 12.7341 19.8227 11.9611C19.5264 11.188 19.0014 10.5228 18.3173 10.0536C17.6331 9.58427 16.8221 9.33301 15.9915 9.33301C15.1609 9.33301 14.3499 9.58427 13.6658 10.0536C12.9817 10.5228 12.4567 11.188 12.1603 11.9611C11.864 12.7341 11.8102 13.5786 12.0061 14.3828C12.202 15.187 12.6383 15.9129 13.2574 16.4646C12.1121 16.8642 11.1195 17.6081 10.4167 18.5938C9.71397 19.5794 9.33563 20.7581 9.33398 21.9672C9.33398 22.1526 9.40793 22.3304 9.53953 22.4616C9.67114 22.5927 9.84962 22.6663 10.0357 22.6663C10.2219 22.6663 10.4003 22.5927 10.532 22.4616C10.6636 22.3304 10.7375 22.1526 10.7375 21.9672C10.7387 20.7899 11.2086 19.6613 12.0441 18.8288C12.8796 17.9964 14.0125 17.5282 15.1941 17.527H16.8072C17.9888 17.5282 19.1217 17.9964 19.9572 18.8288C20.7927 19.6613 21.2626 20.7899 21.2638 21.9672C21.2638 22.1526 21.3377 22.3304 21.4693 22.4616C21.601 22.5927 21.7794 22.6663 21.9656 22.6663C22.1517 22.6663 22.3302 22.5927 22.4618 22.4616C22.5934 22.3304 22.6673 22.1526 22.6673 21.9672C22.6644 20.7559 22.2834 19.5756 21.5771 18.5897C20.8709 17.6038 19.8744 16.8611 18.7256 16.4646ZM15.9915 10.7669C16.5224 10.7669 17.0413 10.9237 17.4827 11.2175C17.9241 11.5113 18.2681 11.929 18.4712 12.4176C18.6744 12.9062 18.7275 13.4439 18.6239 13.9626C18.5204 14.4814 18.2648 14.9578 17.8894 15.3318C17.514 15.7058 17.0358 15.9605 16.5152 16.0637C15.9945 16.1668 15.4549 16.1139 14.9644 15.9115C14.474 15.7091 14.0548 15.3663 13.7599 14.9266C13.465 14.4868 13.3076 13.9698 13.3076 13.4409C13.3076 13.0898 13.377 12.742 13.5119 12.4176C13.6467 12.0932 13.8444 11.7984 14.0937 11.5501C14.597 11.0486 15.2797 10.7669 15.9915 10.7669Z" fill="white"/>
</svg>
