<svg width="39" height="35" viewBox="0 0 39 35" fill="none" xmlns="http://www.w3.org/2000/svg">
<rect x="23" y="19" width="15.36" height="16" rx="3.3" fill="#F2F4F7"/>
<path d="M27.3203 27.1076L30.9189 29.2833V25.4326L27.3203 27.1076Z" fill="white" fill-opacity="0.602"/>
<g opacity="0.6">
<mask id="mask0_7019_293166" style="mask-type:luminance" maskUnits="userSpaceOnUse" x="26" y="25" width="9" height="5">
<g opacity="0.6">
<path d="M26.8398 25.2646H34.6964V29.544H26.8398V25.2646Z" fill="white"/>
</g>
</mask>
<g mask="url(#mask0_7019_293166)">
<path d="M30.7689 25.2646L26.8398 27.126L30.7689 29.544L34.6964 27.126L30.7689 25.2646Z" fill="#010101"/>
</g>
</g>
<g opacity="0.45">
<mask id="mask1_7019_293166" style="mask-type:luminance" maskUnits="userSpaceOnUse" x="26" y="20" width="5" height="10">
<g opacity="0.45">
<path d="M26.8398 20.333H30.7689V29.5417H26.8398V20.333Z" fill="white"/>
</g>
</mask>
<g mask="url(#mask1_7019_293166)">
<path d="M26.8398 27.1237L30.7689 29.5417V20.333L26.8398 27.1237Z" fill="#010101"/>
</g>
</g>
<g opacity="0.8">
<mask id="mask2_7019_293166" style="mask-type:luminance" maskUnits="userSpaceOnUse" x="30" y="20" width="5" height="10">
<g opacity="0.8">
<path d="M30.7734 20.333H34.7025V29.5417H30.7734V20.333Z" fill="white"/>
</g>
</mask>
<g mask="url(#mask2_7019_293166)">
<path d="M30.7734 20.333V29.5417L34.7009 27.1237L30.7734 20.333Z" fill="#010101"/>
</g>
</g>
<g opacity="0.45">
<mask id="mask3_7019_293166" style="mask-type:luminance" maskUnits="userSpaceOnUse" x="26" y="27" width="5" height="7">
<g opacity="0.45">
<path d="M26.8398 27.9014H30.7689V33.6672H26.8398V27.9014Z" fill="white"/>
</g>
</mask>
<g mask="url(#mask3_7019_293166)">
<path d="M26.8398 27.9014L30.7689 33.6673V30.3194L26.8398 27.9014Z" fill="#010101"/>
</g>
</g>
<g opacity="0.8">
<mask id="mask4_7019_293166" style="mask-type:luminance" maskUnits="userSpaceOnUse" x="30" y="27" width="5" height="7">
<g opacity="0.8">
<path d="M30.7734 27.9014H34.704V33.6672H30.7734V27.9014Z" fill="white"/>
</g>
</mask>
<g mask="url(#mask4_7019_293166)">
<path d="M30.7734 30.3194V33.6672L34.704 27.9014L30.7734 30.3194Z" fill="#010101"/>
</g>
</g>
<g style="mix-blend-mode:overlay">
<path d="M32 16C32 7.16344 24.8366 0 16 0C7.16344 0 0 7.16344 0 16C0 24.8366 7.16344 32 16 32C24.8366 32 32 24.8366 32 16Z" fill="#9999E3" fill-opacity="0.25"/>
</g>
<mask id="mask5_7019_293166" style="mask-type:luminance" maskUnits="userSpaceOnUse" x="8" y="8" width="16" height="16">
<path d="M24 8H8V24H24V8Z" fill="white"/>
</mask>
<g mask="url(#mask5_7019_293166)">
<mask id="mask6_7019_293166" style="mask-type:luminance" maskUnits="userSpaceOnUse" x="8" y="8" width="16" height="16">
<path d="M24 8H8V24H24V8Z" fill="white"/>
</mask>
<g mask="url(#mask6_7019_293166)">
<path d="M23.3859 20.8991L17.2497 14.7681C17.0351 14.5595 16.6917 14.5621 16.4797 14.7733C16.2677 14.9853 16.2642 15.3279 16.4719 15.5433L22.6081 21.6795C22.8236 21.8941 23.1721 21.8933 23.3867 21.6787C23.6014 21.4632 23.6014 21.1137 23.3859 20.8991Z" fill="white" stroke="white" stroke-width="0.2"/>
<path d="M19.8563 10.129L18.9773 9.24998C18.1961 8.47136 16.9324 8.47136 16.1513 9.24998L10.9388 14.4383C10.161 15.2187 10.161 16.4823 10.9388 17.2627L11.8178 18.1417C12.5982 18.9212 13.8635 18.9212 14.6438 18.1417L19.8563 12.944C20.628 12.1645 20.628 10.9094 19.8563 10.129ZM19.0699 12.1661L13.8746 17.3811C13.5226 17.7304 12.9543 17.7304 12.6023 17.3811L11.7233 16.502C11.5542 16.3337 11.4589 16.1045 11.4589 15.8659C11.4589 15.6273 11.5542 15.3981 11.7233 15.2298L16.9229 10.0105C17.274 9.66021 17.8423 9.66021 18.1933 10.0105L19.0724 10.8895C19.2424 11.0586 19.3377 11.2887 19.3368 11.5282C19.3368 11.7677 19.2408 11.9979 19.0699 12.1661Z" fill="white" stroke="white" stroke-width="0.2"/>
<path d="M19.1203 22.3789H9.5494C9.24638 22.3789 9 22.6252 9 22.9283C9 23.2322 9.24638 23.4777 9.5494 23.4777H19.1203C19.4241 23.4777 19.6697 23.2322 19.6697 22.9283C19.6697 22.6252 19.4241 22.3789 19.1203 22.3789Z" fill="white" stroke="white" stroke-width="0.2"/>
</g>
</g>
</svg>
