<svg width="39" height="35" viewBox="0 0 39 35" fill="none" xmlns="http://www.w3.org/2000/svg">
<rect x="23" y="19" width="15.36" height="16" rx="3.3" fill="#F2F4F7"/>
<path d="M27.3203 27.1076L30.9189 29.2833V25.4326L27.3203 27.1076Z" fill="white" fill-opacity="0.602"/>
<g opacity="0.6">
<mask id="mask0_7019_293376" style="mask-type:luminance" maskUnits="userSpaceOnUse" x="26" y="25" width="9" height="5">
<g opacity="0.6">
<path d="M26.8398 25.2646H34.6964V29.544H26.8398V25.2646Z" fill="white"/>
</g>
</mask>
<g mask="url(#mask0_7019_293376)">
<path d="M30.7689 25.2646L26.8398 27.126L30.7689 29.544L34.6964 27.126L30.7689 25.2646Z" fill="#010101"/>
</g>
</g>
<g opacity="0.45">
<mask id="mask1_7019_293376" style="mask-type:luminance" maskUnits="userSpaceOnUse" x="26" y="20" width="5" height="10">
<g opacity="0.45">
<path d="M26.8398 20.333H30.7689V29.5417H26.8398V20.333Z" fill="white"/>
</g>
</mask>
<g mask="url(#mask1_7019_293376)">
<path d="M26.8398 27.1237L30.7689 29.5417V20.333L26.8398 27.1237Z" fill="#010101"/>
</g>
</g>
<g opacity="0.8">
<mask id="mask2_7019_293376" style="mask-type:luminance" maskUnits="userSpaceOnUse" x="30" y="20" width="5" height="10">
<g opacity="0.8">
<path d="M30.7734 20.333H34.7025V29.5417H30.7734V20.333Z" fill="white"/>
</g>
</mask>
<g mask="url(#mask2_7019_293376)">
<path d="M30.7734 20.333V29.5417L34.7009 27.1237L30.7734 20.333Z" fill="#010101"/>
</g>
</g>
<g opacity="0.45">
<mask id="mask3_7019_293376" style="mask-type:luminance" maskUnits="userSpaceOnUse" x="26" y="27" width="5" height="7">
<g opacity="0.45">
<path d="M26.8398 27.9014H30.7689V33.6672H26.8398V27.9014Z" fill="white"/>
</g>
</mask>
<g mask="url(#mask3_7019_293376)">
<path d="M26.8398 27.9014L30.7689 33.6673V30.3194L26.8398 27.9014Z" fill="#010101"/>
</g>
</g>
<g opacity="0.8">
<mask id="mask4_7019_293376" style="mask-type:luminance" maskUnits="userSpaceOnUse" x="30" y="27" width="5" height="7">
<g opacity="0.8">
<path d="M30.7734 27.9014H34.704V33.6672H30.7734V27.9014Z" fill="white"/>
</g>
</mask>
<g mask="url(#mask4_7019_293376)">
<path d="M30.7734 30.3194V33.6672L34.704 27.9014L30.7734 30.3194Z" fill="#010101"/>
</g>
</g>
<g style="mix-blend-mode:overlay">
<path d="M32 16C32 7.16344 24.8366 0 16 0C7.16344 0 0 7.16344 0 16C0 24.8366 7.16344 32 16 32C24.8366 32 32 24.8366 32 16Z" fill="#9999E3" fill-opacity="0.25"/>
</g>
<mask id="mask5_7019_293376" style="mask-type:luminance" maskUnits="userSpaceOnUse" x="8" y="8" width="16" height="16">
<path d="M24 8H8V24H24V8Z" fill="white"/>
</mask>
<g mask="url(#mask5_7019_293376)">
<path d="M21.7725 19.3337C22.5088 18.0584 22.8021 16.5752 22.6068 15.1157C22.4114 13.6561 21.7383 12.3023 20.6926 11.2655C19.6468 10.2287 18.2872 9.56736 16.826 9.38458C15.3648 9.20179 13.8841 9.50791 12.6152 10.2551L14.3068 13.1276C14.9413 12.754 15.6816 12.601 16.4122 12.6924C17.1428 12.7837 17.8226 13.1144 18.3455 13.6328C18.8684 14.1512 19.2049 14.8281 19.3026 15.5579C19.4003 16.2877 19.2536 17.0293 18.8854 17.6669L21.7725 19.3337Z" stroke="white" stroke-width="1.0304" stroke-linejoin="round"/>
<path d="M10.2058 12.7031C9.47946 13.9801 9.19525 15.4613 9.39741 16.9164C9.59956 18.3716 10.2767 19.7192 11.3237 20.7499C12.3707 21.7805 13.7288 22.4365 15.187 22.6158C16.6452 22.7951 18.1218 22.4877 19.3873 21.7414L17.694 18.8702C17.0612 19.2434 16.3229 19.3971 15.5938 19.3075C14.8647 19.2178 14.1857 18.8898 13.6622 18.3745C13.1387 17.8592 12.8001 17.1854 12.699 16.4578C12.5979 15.7302 12.74 14.9896 13.1032 14.3511L10.2058 12.7031Z" stroke="white" stroke-width="1.0303" stroke-linejoin="round"/>
</g>
</svg>
