<svg width="39" height="35" viewBox="0 0 39 35" fill="none" xmlns="http://www.w3.org/2000/svg">
<rect x="23" y="19" width="15.36" height="16" rx="3.3" fill="#F2F4F7"/>
<path d="M27.3203 27.1076L30.9189 29.2833V25.4326L27.3203 27.1076Z" fill="white" fill-opacity="0.602"/>
<g opacity="0.6">
<mask id="mask0_7019_293008" style="mask-type:luminance" maskUnits="userSpaceOnUse" x="26" y="25" width="9" height="5">
<g opacity="0.6">
<path d="M26.8398 25.2646H34.6964V29.544H26.8398V25.2646Z" fill="white"/>
</g>
</mask>
<g mask="url(#mask0_7019_293008)">
<path d="M30.7689 25.2646L26.8398 27.126L30.7689 29.544L34.6964 27.126L30.7689 25.2646Z" fill="#010101"/>
</g>
</g>
<g opacity="0.45">
<mask id="mask1_7019_293008" style="mask-type:luminance" maskUnits="userSpaceOnUse" x="26" y="20" width="5" height="10">
<g opacity="0.45">
<path d="M26.8398 20.333H30.7689V29.5417H26.8398V20.333Z" fill="white"/>
</g>
</mask>
<g mask="url(#mask1_7019_293008)">
<path d="M26.8398 27.1237L30.7689 29.5417V20.333L26.8398 27.1237Z" fill="#010101"/>
</g>
</g>
<g opacity="0.8">
<mask id="mask2_7019_293008" style="mask-type:luminance" maskUnits="userSpaceOnUse" x="30" y="20" width="5" height="10">
<g opacity="0.8">
<path d="M30.7734 20.333H34.7025V29.5417H30.7734V20.333Z" fill="white"/>
</g>
</mask>
<g mask="url(#mask2_7019_293008)">
<path d="M30.7734 20.333V29.5417L34.7009 27.1237L30.7734 20.333Z" fill="#010101"/>
</g>
</g>
<g opacity="0.45">
<mask id="mask3_7019_293008" style="mask-type:luminance" maskUnits="userSpaceOnUse" x="26" y="27" width="5" height="7">
<g opacity="0.45">
<path d="M26.8398 27.9014H30.7689V33.6672H26.8398V27.9014Z" fill="white"/>
</g>
</mask>
<g mask="url(#mask3_7019_293008)">
<path d="M26.8398 27.9014L30.7689 33.6673V30.3194L26.8398 27.9014Z" fill="#010101"/>
</g>
</g>
<g opacity="0.8">
<mask id="mask4_7019_293008" style="mask-type:luminance" maskUnits="userSpaceOnUse" x="30" y="27" width="5" height="7">
<g opacity="0.8">
<path d="M30.7734 27.9014H34.704V33.6672H30.7734V27.9014Z" fill="white"/>
</g>
</mask>
<g mask="url(#mask4_7019_293008)">
<path d="M30.7734 30.3194V33.6672L34.704 27.9014L30.7734 30.3194Z" fill="#010101"/>
</g>
</g>
<g style="mix-blend-mode:overlay">
<path d="M32 16C32 7.16344 24.8366 0 16 0C7.16344 0 0 7.16344 0 16C0 24.8366 7.16344 32 16 32C24.8366 32 32 24.8366 32 16Z" fill="#9999E3" fill-opacity="0.25"/>
</g>
<mask id="mask5_7019_293008" style="mask-type:luminance" maskUnits="userSpaceOnUse" x="8" y="8" width="16" height="16">
<path d="M24 8H8V24H24V8Z" fill="white"/>
</mask>
<g mask="url(#mask5_7019_293008)">
<mask id="mask6_7019_293008" style="mask-type:luminance" maskUnits="userSpaceOnUse" x="8" y="8" width="16" height="16">
<path d="M24 8H8V24H24V8Z" fill="white"/>
</mask>
<g mask="url(#mask6_7019_293008)">
<path d="M23.2646 18.9626C23.2 19.1659 23.0923 19.3528 22.9489 19.5107C22.8054 19.6685 22.6296 19.7936 22.4335 19.8773L14.3503 23.3338L14.1712 23.2486C11.966 22.2016 10.9178 21.693 10.4097 21.4357C10.151 21.3048 10.1122 20.9919 10.3153 20.7851C10.4645 20.6331 10.6953 20.5959 10.886 20.6905C11.644 21.0665 13.2308 21.8269 14.3694 22.3676L22.0884 19.0668C22.1682 19.0328 22.2397 18.9819 22.298 18.9177C22.3563 18.8535 22.4001 18.7775 22.4263 18.6948C22.4525 18.6121 22.4606 18.5248 22.4499 18.4387C22.4392 18.3526 22.4101 18.2699 22.3645 18.1961C22.2896 18.074 22.1736 17.9827 22.0374 17.9385C21.9012 17.8944 21.7537 17.9003 21.6215 17.9553L15.7438 20.3736L13.3268 19.1417C13.1103 19.0314 13.0242 18.7665 13.1345 18.5501C13.2448 18.3335 13.5098 18.2474 13.7263 18.3577L15.7834 19.406L16.801 18.9861C16.6412 18.6625 16.4328 18.3653 16.1828 18.1051C14.5881 16.4502 11.6478 16.2611 9.76764 17.6142C9.60052 17.7345 9.38092 17.7641 9.19631 17.6729L8.88024 17.5169C8.76778 17.4613 8.72963 17.3166 8.82794 17.2387C11.0025 15.2903 14.8099 15.4121 16.8171 17.4928C17.144 17.8331 17.4142 18.2238 17.6174 18.6498L21.2852 17.1404C21.5465 17.0327 21.8332 17.0018 22.1114 17.0515C22.3896 17.1011 22.6478 17.2291 22.8558 17.4205C23.0637 17.6119 23.2126 17.8587 23.285 18.1319C23.3574 18.4051 23.3504 18.6933 23.2646 18.9626Z" fill="white" stroke="white" stroke-width="0.1"/>
<path d="M21.2045 13.862C21.2059 14.8004 20.9523 15.7201 20.4725 16.5235C20.4029 16.6399 20.2755 16.7076 20.14 16.7076C19.7949 16.7076 19.5957 16.2875 19.7651 15.9867C19.9619 15.6375 20.1098 15.2613 20.2037 14.8686C20.3664 14.188 20.3618 13.4782 20.1903 12.7998C20.0187 12.1214 19.6854 11.4947 19.2187 10.9732C18.7521 10.4518 18.1661 10.0512 17.5108 9.8057C16.8555 9.56021 16.1505 9.47715 15.4561 9.56361C14.7618 9.65009 14.0987 9.90351 13.5236 10.3022C12.9486 10.7009 12.4787 11.233 12.1542 11.8529C11.8297 12.4729 11.6602 13.1622 11.6603 13.862C11.6599 14.1306 11.685 14.3982 11.7348 14.6613C11.7893 14.949 11.5826 15.2378 11.2898 15.2378C11.0975 15.2378 10.927 15.1097 10.8877 14.9215C10.8149 14.5734 10.7785 14.2183 10.7793 13.862C10.7793 12.4795 11.3285 11.1537 12.306 10.1761C13.2836 9.19859 14.6094 8.64941 15.9919 8.64941C17.3743 8.64941 18.7001 9.19859 19.6777 10.1761C20.6553 11.1537 21.2045 12.4795 21.2045 13.862Z" fill="white" stroke="white" stroke-width="0.1"/>
<path fill-rule="evenodd" clip-rule="evenodd" d="M18.3572 11.7961C18.4875 11.9124 18.4875 12.1008 18.3572 12.217L15.5956 14.6808C15.533 14.7366 15.4481 14.768 15.3596 14.768C15.2711 14.768 15.1862 14.7366 15.1236 14.6808L13.6583 13.3738C13.528 13.2575 13.528 13.0691 13.6583 12.9529C13.7886 12.8366 13.9998 12.8366 14.1302 12.9529L15.3596 14.0494L17.8853 11.7962C18.0156 11.6799 18.2269 11.6799 18.3572 11.7961Z" fill="white" stroke="white" stroke-width="0.183539" stroke-linecap="round" stroke-linejoin="round"/>
</g>
</g>
</svg>
