<svg width="39" height="35" viewBox="0 0 39 35" fill="none" xmlns="http://www.w3.org/2000/svg">
<rect width="32" height="32" rx="16" fill="white" fill-opacity="0.25" style="mix-blend-mode:overlay"/>
<path fill-rule="evenodd" clip-rule="evenodd" d="M19.5537 12.522C19.5537 13.1844 19.441 13.8197 19.2339 14.3942C19.8354 14.5022 20.4421 14.7225 21.015 15.0532C22.036 15.6428 22.8067 16.5005 23.2086 17.4413C23.6106 18.3824 23.657 19.4548 23.1254 20.3756C22.5937 21.2965 21.6418 21.7925 20.6258 21.9149C19.6101 22.0372 18.4819 21.7987 17.4608 21.2092C16.8878 20.8783 16.3939 20.4632 15.9998 19.9966C15.6055 20.4634 15.1116 20.8785 14.5388 21.2092C13.5177 21.7987 12.3896 22.0372 11.3739 21.9149C10.3579 21.7925 9.40596 21.2965 8.8743 20.3756C8.34263 19.4548 8.38908 18.3824 8.79106 17.4413C9.19293 16.5005 9.9636 15.6428 10.9847 15.0532C11.5577 14.7224 12.1641 14.5023 12.7653 14.3943C12.558 13.8192 12.4454 13.1837 12.4454 12.522C12.4454 11.343 12.8029 10.2467 13.4167 9.42828C14.0307 8.60962 14.9362 8.0332 15.9996 8.0332C17.0629 8.0332 17.9684 8.60962 18.5824 9.42828C19.1962 10.2467 19.5537 11.343 19.5537 12.522ZM17.3824 10.3283C17.7834 10.863 18.0537 11.6362 18.0537 12.522C18.0537 13.2383 17.8769 13.8825 17.5957 14.3863C16.8429 14.5256 16.1429 14.8779 15.6468 15.4649C15.2795 15.3688 14.9206 15.121 14.6167 14.7158C14.2157 14.181 13.9454 13.4079 13.9454 12.522C13.9454 11.6362 14.2157 10.863 14.6167 10.3283C15.0176 9.79376 15.5142 9.5332 15.9996 9.5332C16.4849 9.5332 16.9815 9.79376 17.3824 10.3283ZM16.8662 16.3538C17.1268 17.0774 17.0819 17.8601 16.8258 18.5822C17.1213 19.0767 17.5902 19.5518 18.2108 19.9101C18.978 20.3531 19.7827 20.5056 20.4463 20.4256C21.1097 20.3457 21.5836 20.0459 21.8263 19.6256C22.069 19.2053 22.0916 18.645 21.8292 18.0305C21.5666 17.4158 21.0321 16.7952 20.265 16.3523C19.4978 15.9093 18.6931 15.7568 18.0295 15.8368C17.5269 15.8973 17.1331 16.084 16.8662 16.3538ZM11.7347 16.3523C12.3552 15.994 13.001 15.8254 13.577 15.8168C14.0748 16.4001 14.7298 16.8303 15.487 16.9663C15.587 17.3322 15.5518 17.7665 15.353 18.2319C15.0904 18.8466 14.556 19.4672 13.7888 19.9101C13.0216 20.3531 12.217 20.5056 11.5533 20.4256C10.8899 20.3457 10.416 20.0459 10.1733 19.6256C9.93066 19.2053 9.90802 18.645 10.1705 18.0305C10.4331 17.4158 10.9675 16.7952 11.7347 16.3523Z" fill="white"/>
<rect x="23" y="19" width="15.36" height="16" rx="3.3" fill="#F2F4F7"/>
<path d="M27.3203 27.1076L30.9189 29.2833V25.4326L27.3203 27.1076Z" fill="white" fill-opacity="0.602"/>
<g opacity="0.6">
<mask id="mask0_6001_21392" style="mask-type:luminance" maskUnits="userSpaceOnUse" x="26" y="25" width="9" height="5">
<g opacity="0.6">
<path d="M26.8398 25.2646H34.6964V29.544H26.8398V25.2646Z" fill="white"/>
</g>
</mask>
<g mask="url(#mask0_6001_21392)">
<path d="M30.7689 25.2646L26.8398 27.126L30.7689 29.544L34.6964 27.126L30.7689 25.2646Z" fill="#010101"/>
</g>
</g>
<g opacity="0.45">
<mask id="mask1_6001_21392" style="mask-type:luminance" maskUnits="userSpaceOnUse" x="26" y="20" width="5" height="10">
<g opacity="0.45">
<path d="M26.8398 20.333H30.7689V29.5417H26.8398V20.333Z" fill="white"/>
</g>
</mask>
<g mask="url(#mask1_6001_21392)">
<path d="M26.8398 27.1237L30.7689 29.5417V20.333L26.8398 27.1237Z" fill="#010101"/>
</g>
</g>
<g opacity="0.8">
<mask id="mask2_6001_21392" style="mask-type:luminance" maskUnits="userSpaceOnUse" x="30" y="20" width="5" height="10">
<g opacity="0.8">
<path d="M30.7734 20.333H34.7025V29.5417H30.7734V20.333Z" fill="white"/>
</g>
</mask>
<g mask="url(#mask2_6001_21392)">
<path d="M30.7734 20.333V29.5417L34.7009 27.1237L30.7734 20.333Z" fill="#010101"/>
</g>
</g>
<g opacity="0.45">
<mask id="mask3_6001_21392" style="mask-type:luminance" maskUnits="userSpaceOnUse" x="26" y="27" width="5" height="7">
<g opacity="0.45">
<path d="M26.8398 27.9014H30.7689V33.6672H26.8398V27.9014Z" fill="white"/>
</g>
</mask>
<g mask="url(#mask3_6001_21392)">
<path d="M26.8398 27.9014L30.7689 33.6673V30.3194L26.8398 27.9014Z" fill="#010101"/>
</g>
</g>
<g opacity="0.8">
<mask id="mask4_6001_21392" style="mask-type:luminance" maskUnits="userSpaceOnUse" x="30" y="27" width="5" height="7">
<g opacity="0.8">
<path d="M30.7734 27.9014H34.704V33.6672H30.7734V27.9014Z" fill="white"/>
</g>
</mask>
<g mask="url(#mask4_6001_21392)">
<path d="M30.7734 30.3194V33.6672L34.704 27.9014L30.7734 30.3194Z" fill="#010101"/>
</g>
</g>
</svg>
