<svg width="39" height="35" viewBox="0 0 39 35" fill="none" xmlns="http://www.w3.org/2000/svg">
<rect width="32" height="32" rx="16" fill="white" fill-opacity="0.25" style="mix-blend-mode:overlay"/>
<path fill-rule="evenodd" clip-rule="evenodd" d="M16.001 9.01172C13.5259 9.01172 11.5195 11.0181 11.5195 13.4932C11.5195 15.9682 13.5259 17.9746 16.001 17.9746C18.476 17.9746 20.4824 15.9682 20.4824 13.4932C20.4824 11.0181 18.476 9.01172 16.001 9.01172ZM13.0195 13.4932C13.0195 11.8466 14.3544 10.5117 16.001 10.5117C17.6476 10.5117 18.9824 11.8466 18.9824 13.4932C18.9824 15.1398 17.6476 16.4746 16.001 16.4746C14.3544 16.4746 13.0195 15.1398 13.0195 13.4932Z" fill="white"/>
<path d="M10.5195 18.7812C10.5195 18.367 10.1837 18.0312 9.76953 18.0312C9.35532 18.0312 9.01953 18.367 9.01953 18.7812V21.2559C9.01953 21.6701 9.35532 22.0059 9.76953 22.0059H22.2324C22.6466 22.0059 22.9824 21.6701 22.9824 21.2559V18.7812C22.9824 18.367 22.6466 18.0312 22.2324 18.0312C21.8182 18.0312 21.4824 18.367 21.4824 18.7812V20.5059H10.5195V18.7812Z" fill="white"/>
<rect x="23" y="19" width="15.36" height="16" rx="3.3" fill="#F2F4F7"/>
<path d="M27.3203 27.1076L30.9189 29.2833V25.4326L27.3203 27.1076Z" fill="white" fill-opacity="0.602"/>
<g opacity="0.6">
<mask id="mask0_5921_152352" style="mask-type:luminance" maskUnits="userSpaceOnUse" x="26" y="25" width="9" height="5">
<g opacity="0.6">
<path d="M26.8398 25.2637H34.6964V29.5431H26.8398V25.2637Z" fill="white"/>
</g>
</mask>
<g mask="url(#mask0_5921_152352)">
<path d="M30.7689 25.2637L26.8398 27.1251L30.7689 29.5431L34.6964 27.1251L30.7689 25.2637Z" fill="#010101"/>
</g>
</g>
<g opacity="0.45">
<mask id="mask1_5921_152352" style="mask-type:luminance" maskUnits="userSpaceOnUse" x="26" y="20" width="5" height="10">
<g opacity="0.45">
<path d="M26.8398 20.333H30.7689V29.5417H26.8398V20.333Z" fill="white"/>
</g>
</mask>
<g mask="url(#mask1_5921_152352)">
<path d="M26.8398 27.1237L30.7689 29.5417V20.333L26.8398 27.1237Z" fill="#010101"/>
</g>
</g>
<g opacity="0.8">
<mask id="mask2_5921_152352" style="mask-type:luminance" maskUnits="userSpaceOnUse" x="30" y="20" width="5" height="10">
<g opacity="0.8">
<path d="M30.7715 20.333H34.7005V29.5417H30.7715V20.333Z" fill="white"/>
</g>
</mask>
<g mask="url(#mask2_5921_152352)">
<path d="M30.7715 20.333V29.5417L34.699 27.1237L30.7715 20.333Z" fill="#010101"/>
</g>
</g>
<g opacity="0.45">
<mask id="mask3_5921_152352" style="mask-type:luminance" maskUnits="userSpaceOnUse" x="26" y="27" width="5" height="7">
<g opacity="0.45">
<path d="M26.8398 27.9014H30.7689V33.6672H26.8398V27.9014Z" fill="white"/>
</g>
</mask>
<g mask="url(#mask3_5921_152352)">
<path d="M26.8398 27.9014L30.7689 33.6673V30.3194L26.8398 27.9014Z" fill="#010101"/>
</g>
</g>
<g opacity="0.8">
<mask id="mask4_5921_152352" style="mask-type:luminance" maskUnits="userSpaceOnUse" x="30" y="27" width="5" height="7">
<g opacity="0.8">
<path d="M30.7715 27.9014H34.702V33.6672H30.7715V27.9014Z" fill="white"/>
</g>
</mask>
<g mask="url(#mask4_5921_152352)">
<path d="M30.7715 30.3194V33.6672L34.702 27.9014L30.7715 30.3194Z" fill="#010101"/>
</g>
</g>
</svg>
