<svg width="39" height="35" viewBox="0 0 39 35" fill="none" xmlns="http://www.w3.org/2000/svg">
<rect width="32" height="32" rx="16" fill="#9999E3" fill-opacity="0.25" style="mix-blend-mode:overlay"/>
<path d="M16.7498 9.75977C16.7498 9.34555 16.4141 9.00977 15.9998 9.00977C15.5856 9.00977 15.2498 9.34555 15.2498 9.75977V20.6216L12.3585 17.2352C12.0656 16.9423 11.5907 16.9423 11.2978 17.2352C11.0049 17.5281 11.0049 18.003 11.2978 18.2959L15.9998 22.998L20.7019 18.2959C20.9948 18.003 20.9948 17.5281 20.7019 17.2352C20.409 16.9423 19.9341 16.9423 19.6412 17.2352L16.7498 20.6216V9.75977Z" fill="white"/>
<rect x="23" y="19" width="15.36" height="16" rx="3.3" fill="#F2F4F7"/>
<path d="M27.3203 27.1076L30.9189 29.2833V25.4326L27.3203 27.1076Z" fill="white" fill-opacity="0.602"/>
<g opacity="0.6">
<mask id="mask0_5921_152369" style="mask-type:luminance" maskUnits="userSpaceOnUse" x="26" y="25" width="9" height="5">
<g opacity="0.6">
<path d="M26.8398 25.2637H34.6964V29.5431H26.8398V25.2637Z" fill="white"/>
</g>
</mask>
<g mask="url(#mask0_5921_152369)">
<path d="M30.7689 25.2637L26.8398 27.1251L30.7689 29.5431L34.6964 27.1251L30.7689 25.2637Z" fill="#010101"/>
</g>
</g>
<g opacity="0.45">
<mask id="mask1_5921_152369" style="mask-type:luminance" maskUnits="userSpaceOnUse" x="26" y="20" width="5" height="10">
<g opacity="0.45">
<path d="M26.8398 20.333H30.7689V29.5417H26.8398V20.333Z" fill="white"/>
</g>
</mask>
<g mask="url(#mask1_5921_152369)">
<path d="M26.8398 27.1237L30.7689 29.5417V20.333L26.8398 27.1237Z" fill="#010101"/>
</g>
</g>
<g opacity="0.8">
<mask id="mask2_5921_152369" style="mask-type:luminance" maskUnits="userSpaceOnUse" x="30" y="20" width="5" height="10">
<g opacity="0.8">
<path d="M30.7715 20.333H34.7005V29.5417H30.7715V20.333Z" fill="white"/>
</g>
</mask>
<g mask="url(#mask2_5921_152369)">
<path d="M30.7715 20.333V29.5417L34.699 27.1237L30.7715 20.333Z" fill="#010101"/>
</g>
</g>
<g opacity="0.45">
<mask id="mask3_5921_152369" style="mask-type:luminance" maskUnits="userSpaceOnUse" x="26" y="27" width="5" height="7">
<g opacity="0.45">
<path d="M26.8398 27.9014H30.7689V33.6672H26.8398V27.9014Z" fill="white"/>
</g>
</mask>
<g mask="url(#mask3_5921_152369)">
<path d="M26.8398 27.9014L30.7689 33.6673V30.3194L26.8398 27.9014Z" fill="#010101"/>
</g>
</g>
<g opacity="0.8">
<mask id="mask4_5921_152369" style="mask-type:luminance" maskUnits="userSpaceOnUse" x="30" y="27" width="5" height="7">
<g opacity="0.8">
<path d="M30.7715 27.9014H34.702V33.6672H30.7715V27.9014Z" fill="white"/>
</g>
</mask>
<g mask="url(#mask4_5921_152369)">
<path d="M30.7715 30.3194V33.6672L34.702 27.9014L30.7715 30.3194Z" fill="#010101"/>
</g>
</g>
</svg>
