<svg width="39" height="35" viewBox="0 0 39 35" fill="none" xmlns="http://www.w3.org/2000/svg">
<rect width="32" height="32" rx="16" fill="#9999E3" fill-opacity="0.25" style="mix-blend-mode:overlay"/>
<path fill-rule="evenodd" clip-rule="evenodd" d="M16.4007 9.05604C15.4668 8.66921 14.4392 8.56799 13.4478 8.7652C12.4564 8.9624 11.5457 9.44917 10.8309 10.1639C10.1162 10.8787 9.6294 11.7894 9.43219 12.7808C9.23499 13.7722 9.3362 14.7998 9.72303 15.7337C10.0988 16.641 10.7277 17.4201 11.5339 17.9787C11.707 20.6447 13.9242 22.7535 16.6339 22.7535C19.3273 22.7535 21.5342 20.6699 21.7306 18.0267C23.098 17.1105 24.0001 15.5499 24.0001 13.7779C24.0001 10.9552 21.7119 8.66699 18.8892 8.66699C18.0934 8.66699 17.3387 8.84934 16.6659 9.1748C16.5788 9.13279 16.4904 9.09318 16.4007 9.05604ZM19.0946 11.7C18.99 11.4389 18.8584 11.1838 18.6945 10.9384C18.4919 10.6354 18.2587 10.3565 17.9995 10.1056C18.2845 10.0368 18.5824 10.0003 18.8892 10.0003C20.9755 10.0003 22.6668 11.6916 22.6668 13.7779C22.6668 15.1342 21.9523 16.3244 20.8763 16.9913L20.7485 17.0641C20.1989 17.3767 19.5632 17.5555 18.8837 17.5555C18.5788 17.5555 18.2824 17.5194 17.9985 17.4512C18.9582 16.5225 19.5559 15.2202 19.5559 13.7779V13.4559L19.5242 13.4307C19.4829 12.8179 19.3333 12.2347 19.0946 11.7ZM16.0995 10.382L16.3212 10.5112C16.9979 10.9056 17.5409 11.5036 17.8664 12.2203C17.9725 12.4917 18.0417 12.7837 18.0809 13.0934L14.3506 13.0005L14.1654 12.9959L14.0043 13.0875C12.8588 13.7392 12.0773 14.8592 11.731 16.1287C11.7097 16.1994 11.6899 16.2708 11.6716 16.3428C11.37 16.0167 11.1266 15.6382 10.9549 15.2235C10.669 14.5332 10.5941 13.7737 10.7399 13.0409C10.8857 12.3081 11.2454 11.635 11.7737 11.1067C12.302 10.5784 12.9751 10.2187 13.7079 10.0729C14.4407 9.92715 15.2002 10.002 15.8905 10.2879C15.9612 10.3172 16.0309 10.3486 16.0995 10.382ZM15.1498 14.3542L18.1666 14.4293C17.9954 15.4145 17.4425 16.2693 16.6643 16.8351C15.8672 16.2555 15.3055 15.3717 15.1498 14.3542ZM12.8604 17.8203L12.8619 17.6153C12.8645 17.2369 12.9142 16.8686 13.0057 16.5198C13.1822 15.9286 13.4964 15.4008 13.9136 14.9743C14.2319 16.3014 15.0678 17.4271 16.196 18.1259C16.2297 18.1617 16.2809 18.2079 16.3505 18.2479C17.0992 18.6772 17.9669 18.9225 18.8899 18.9225C19.3608 18.9225 19.8163 18.8597 20.2493 18.7409C19.7789 20.2915 18.3382 21.4201 16.6339 21.4201C14.6072 21.4201 12.9533 19.8241 12.8604 17.8203Z" fill="white"/>
<rect x="23" y="19" width="15.36" height="16" rx="3.3" fill="#F2F4F7"/>
<path d="M27.3203 27.1076L30.9189 29.2833V25.4326L27.3203 27.1076Z" fill="white" fill-opacity="0.602"/>
<g opacity="0.6">
<mask id="mask0_5921_152652" style="mask-type:luminance" maskUnits="userSpaceOnUse" x="26" y="25" width="9" height="5">
<g opacity="0.6">
<path d="M26.8398 25.2637H34.6964V29.5431H26.8398V25.2637Z" fill="white"/>
</g>
</mask>
<g mask="url(#mask0_5921_152652)">
<path d="M30.7689 25.2637L26.8398 27.1251L30.7689 29.5431L34.6964 27.1251L30.7689 25.2637Z" fill="#010101"/>
</g>
</g>
<g opacity="0.45">
<mask id="mask1_5921_152652" style="mask-type:luminance" maskUnits="userSpaceOnUse" x="26" y="20" width="5" height="10">
<g opacity="0.45">
<path d="M26.8398 20.333H30.7689V29.5417H26.8398V20.333Z" fill="white"/>
</g>
</mask>
<g mask="url(#mask1_5921_152652)">
<path d="M26.8398 27.1237L30.7689 29.5417V20.333L26.8398 27.1237Z" fill="#010101"/>
</g>
</g>
<g opacity="0.8">
<mask id="mask2_5921_152652" style="mask-type:luminance" maskUnits="userSpaceOnUse" x="30" y="20" width="5" height="10">
<g opacity="0.8">
<path d="M30.7715 20.333H34.7005V29.5417H30.7715V20.333Z" fill="white"/>
</g>
</mask>
<g mask="url(#mask2_5921_152652)">
<path d="M30.7715 20.333V29.5417L34.699 27.1237L30.7715 20.333Z" fill="#010101"/>
</g>
</g>
<g opacity="0.45">
<mask id="mask3_5921_152652" style="mask-type:luminance" maskUnits="userSpaceOnUse" x="26" y="27" width="5" height="7">
<g opacity="0.45">
<path d="M26.8398 27.9014H30.7689V33.6672H26.8398V27.9014Z" fill="white"/>
</g>
</mask>
<g mask="url(#mask3_5921_152652)">
<path d="M26.8398 27.9014L30.7689 33.6673V30.3194L26.8398 27.9014Z" fill="#010101"/>
</g>
</g>
<g opacity="0.8">
<mask id="mask4_5921_152652" style="mask-type:luminance" maskUnits="userSpaceOnUse" x="30" y="27" width="5" height="7">
<g opacity="0.8">
<path d="M30.7715 27.9014H34.702V33.6672H30.7715V27.9014Z" fill="white"/>
</g>
</mask>
<g mask="url(#mask4_5921_152652)">
<path d="M30.7715 30.3194V33.6672L34.702 27.9014L30.7715 30.3194Z" fill="#010101"/>
</g>
</g>
</svg>
