<svg width="39" height="35" viewBox="0 0 39 35" fill="none" xmlns="http://www.w3.org/2000/svg">
<rect width="32" height="32" rx="16" fill="#9999E3" fill-opacity="0.25" style="mix-blend-mode:overlay"/>
<g clip-path="url(#clip0_5921_152357)">
<path fill-rule="evenodd" clip-rule="evenodd" d="M13.1021 18.8979C10.2539 18.7163 8 16.3486 8 13.4545C8 10.4421 10.4421 8 13.4545 8C16.3486 8 18.7163 10.2539 18.8979 13.1021C21.7461 13.2838 24 15.6514 24 18.5455C24 21.5579 21.5579 24 18.5455 24C15.6514 24 13.2838 21.7461 13.1021 18.8979ZM9.45455 13.4545C9.45455 11.2454 11.2454 9.45455 13.4545 9.45455C15.5787 9.45455 17.3162 11.1103 17.4467 13.2016C15.3158 13.6375 13.6375 15.3158 13.2016 17.4467C11.1103 17.3162 9.45455 15.5787 9.45455 13.4545ZM22.5455 18.5455C22.5455 20.7546 20.7546 22.5455 18.5455 22.5455C16.3363 22.5455 14.5455 20.7546 14.5455 18.5455C14.5455 16.3363 16.3363 14.5455 18.5455 14.5455C20.7546 14.5455 22.5455 16.3363 22.5455 18.5455Z" fill="white"/>
</g>
<rect x="23" y="19" width="15.36" height="16" rx="3.3" fill="#F2F4F7"/>
<path d="M27.3203 27.1076L30.9189 29.2833V25.4326L27.3203 27.1076Z" fill="white" fill-opacity="0.602"/>
<g opacity="0.6">
<mask id="mask0_5921_152357" style="mask-type:luminance" maskUnits="userSpaceOnUse" x="26" y="25" width="9" height="5">
<g opacity="0.6">
<path d="M26.8398 25.2637H34.6964V29.5431H26.8398V25.2637Z" fill="white"/>
</g>
</mask>
<g mask="url(#mask0_5921_152357)">
<path d="M30.7689 25.2637L26.8398 27.1251L30.7689 29.5431L34.6964 27.1251L30.7689 25.2637Z" fill="#010101"/>
</g>
</g>
<g opacity="0.45">
<mask id="mask1_5921_152357" style="mask-type:luminance" maskUnits="userSpaceOnUse" x="26" y="20" width="5" height="10">
<g opacity="0.45">
<path d="M26.8398 20.333H30.7689V29.5417H26.8398V20.333Z" fill="white"/>
</g>
</mask>
<g mask="url(#mask1_5921_152357)">
<path d="M26.8398 27.1237L30.7689 29.5417V20.333L26.8398 27.1237Z" fill="#010101"/>
</g>
</g>
<g opacity="0.8">
<mask id="mask2_5921_152357" style="mask-type:luminance" maskUnits="userSpaceOnUse" x="30" y="20" width="5" height="10">
<g opacity="0.8">
<path d="M30.7715 20.333H34.7005V29.5417H30.7715V20.333Z" fill="white"/>
</g>
</mask>
<g mask="url(#mask2_5921_152357)">
<path d="M30.7715 20.333V29.5417L34.699 27.1237L30.7715 20.333Z" fill="#010101"/>
</g>
</g>
<g opacity="0.45">
<mask id="mask3_5921_152357" style="mask-type:luminance" maskUnits="userSpaceOnUse" x="26" y="27" width="5" height="7">
<g opacity="0.45">
<path d="M26.8398 27.9014H30.7689V33.6672H26.8398V27.9014Z" fill="white"/>
</g>
</mask>
<g mask="url(#mask3_5921_152357)">
<path d="M26.8398 27.9014L30.7689 33.6673V30.3194L26.8398 27.9014Z" fill="#010101"/>
</g>
</g>
<g opacity="0.8">
<mask id="mask4_5921_152357" style="mask-type:luminance" maskUnits="userSpaceOnUse" x="30" y="27" width="5" height="7">
<g opacity="0.8">
<path d="M30.7715 27.9014H34.702V33.6672H30.7715V27.9014Z" fill="white"/>
</g>
</mask>
<g mask="url(#mask4_5921_152357)">
<path d="M30.7715 30.3194V33.6672L34.702 27.9014L30.7715 30.3194Z" fill="#010101"/>
</g>
</g>
<defs>
<clipPath id="clip0_5921_152357">
<rect width="16" height="16" fill="white" transform="translate(8 8)"/>
</clipPath>
</defs>
</svg>
