<svg width="39" height="35" viewBox="0 0 39 35" fill="none" xmlns="http://www.w3.org/2000/svg">
<rect width="32" height="32" rx="16" fill="#9999E3" fill-opacity="0.25" style="mix-blend-mode:overlay"/>
<g clip-path="url(#clip0_7026_456439)">
<path fill-rule="evenodd" clip-rule="evenodd" d="M16.5296 9.0849C16.2367 8.79201 15.7619 8.79201 15.469 9.0849L9.08295 15.4709C8.79006 15.7638 8.79006 16.2387 9.08295 16.5316L15.469 22.9176C15.7619 23.2105 16.2367 23.2105 16.5296 22.9176L22.9157 16.5316C23.2085 16.2387 23.2085 15.7638 22.9157 15.4709L16.5296 9.0849ZM11.3752 15.3L15.9993 10.6759L20.6234 15.3H11.3752ZM11.3727 16.7L15.9993 21.3266L20.6259 16.7H11.3727Z" fill="white"/>
</g>
<g clip-path="url(#clip1_7026_456439)">
<path d="M35.3295 19H26.0293C24.3724 19 23.0293 20.3431 23.0293 22V32C23.0293 33.6569 24.3724 35 26.0293 35H35.3295C36.9864 35 38.3295 33.6569 38.3295 32V22C38.3295 20.3431 36.9864 19 35.3295 19Z" fill="url(#paint0_radial_7026_456439)"/>
<path d="M37.0265 26.8735C33.5866 26.8735 30.801 23.9576 30.801 20.3633H30.5595V26.8735H24.334V27.126C27.7739 27.126 30.5595 30.042 30.5595 33.6363H30.801V27.126H37.0265V26.8735Z" fill="white"/>
</g>
<defs>
<radialGradient id="paint0_radial_7026_456439" cx="0" cy="0" r="1" gradientUnits="userSpaceOnUse" gradientTransform="translate(30.6794 27) rotate(90) scale(8 7.65012)">
<stop stop-color="#FC74FE"/>
<stop offset="1" stop-color="#F50DB4"/>
</radialGradient>
<clipPath id="clip0_7026_456439">
<rect width="16" height="16" fill="white" transform="translate(8 8)"/>
</clipPath>
<clipPath id="clip1_7026_456439">
<rect width="15.36" height="16" fill="white" transform="translate(23 19)"/>
</clipPath>
</defs>
</svg>
