<svg width="39" height="35" viewBox="0 0 39 35" fill="none" xmlns="http://www.w3.org/2000/svg">
<rect width="32" height="32" rx="16" fill="#9999E3" fill-opacity="0.25" style="mix-blend-mode:overlay"/>
<path fill-rule="evenodd" clip-rule="evenodd" d="M16 9.01172C14.4163 9.01172 12.9515 9.47203 11.8637 10.2539C10.7772 11.035 10.0195 12.1803 10.0195 13.5215C10.0195 14.4631 10.393 15.3081 10.9915 15.9983C10.3933 16.6885 10.0195 17.5357 10.0195 18.4756C10.0195 19.8168 10.7772 20.9621 11.8637 21.7431C12.9515 22.525 14.4163 22.9854 16 22.9854C17.5837 22.9854 19.0485 22.525 20.1363 21.7431C21.2228 20.9621 21.9805 19.8168 21.9805 18.4756C21.9805 17.5357 21.6067 16.6885 21.0085 15.9983C21.607 15.3081 21.9805 14.4631 21.9805 13.5215C21.9805 12.1803 21.2228 11.035 20.1363 10.2539C19.0485 9.47203 17.5837 9.01172 16 9.01172ZM11.5195 13.5215C11.5195 12.7862 11.9328 12.0516 12.7393 11.4719C13.5445 10.8931 14.695 10.5117 16 10.5117C17.305 10.5117 18.4555 10.8931 19.2607 11.4719C20.0672 12.0516 20.4805 12.7862 20.4805 13.5215C20.4805 14.2568 20.0672 14.9913 19.2607 15.571C18.4555 16.1499 17.305 16.5312 16 16.5312C14.695 16.5312 13.5445 16.1499 12.7393 15.571C11.9328 14.9913 11.5195 14.2568 11.5195 13.5215ZM19.8671 16.9711C18.8125 17.6419 17.4565 18.0312 16 18.0312C14.5435 18.0312 13.1875 17.6419 12.1329 16.9711C11.726 17.436 11.5195 17.9537 11.5195 18.4756C11.5195 19.2109 11.9328 19.9454 12.7393 20.5252C13.5445 21.104 14.695 21.4854 16 21.4854C17.305 21.4854 18.4555 21.104 19.2607 20.5252C20.0672 19.9454 20.4805 19.2109 20.4805 18.4756C20.4805 17.9537 20.274 17.436 19.8671 16.9711Z" fill="white"/>
<g clip-path="url(#clip0_7026_456443)">
<path d="M35.3295 19H26.0293C24.3724 19 23.0293 20.3431 23.0293 22V32C23.0293 33.6569 24.3724 35 26.0293 35H35.3295C36.9864 35 38.3295 33.6569 38.3295 32V22C38.3295 20.3431 36.9864 19 35.3295 19Z" fill="url(#paint0_radial_7026_456443)"/>
<path d="M37.0265 26.8735C33.5866 26.8735 30.801 23.9576 30.801 20.3633H30.5595V26.8735H24.334V27.126C27.7739 27.126 30.5595 30.042 30.5595 33.6363H30.801V27.126H37.0265V26.8735Z" fill="white"/>
</g>
<defs>
<radialGradient id="paint0_radial_7026_456443" cx="0" cy="0" r="1" gradientUnits="userSpaceOnUse" gradientTransform="translate(30.6794 27) rotate(90) scale(8 7.65012)">
<stop stop-color="#FC74FE"/>
<stop offset="1" stop-color="#F50DB4"/>
</radialGradient>
<clipPath id="clip0_7026_456443">
<rect width="15.36" height="16" fill="white" transform="translate(23 19)"/>
</clipPath>
</defs>
</svg>
