<svg width="39" height="35" viewBox="0 0 39 35" fill="none" xmlns="http://www.w3.org/2000/svg">
<rect width="32" height="32" rx="16" fill="#9999E3" fill-opacity="0.25" style="mix-blend-mode:overlay"/>
<path d="M16.7498 9.75977C16.7498 9.34555 16.4141 9.00977 15.9998 9.00977C15.5856 9.00977 15.2498 9.34555 15.2498 9.75977V20.6216L12.3585 17.2352C12.0656 16.9423 11.5907 16.9423 11.2978 17.2352C11.0049 17.5281 11.0049 18.003 11.2978 18.2959L15.9998 22.998L20.7019 18.2959C20.9948 18.003 20.9948 17.5281 20.7019 17.2352C20.409 16.9423 19.9341 16.9423 19.6412 17.2352L16.7498 20.6216V9.75977Z" fill="white"/>
<g clip-path="url(#clip0_7026_456437)">
<path d="M35.3295 19H26.0293C24.3724 19 23.0293 20.3431 23.0293 22V32C23.0293 33.6569 24.3724 35 26.0293 35H35.3295C36.9864 35 38.3295 33.6569 38.3295 32V22C38.3295 20.3431 36.9864 19 35.3295 19Z" fill="url(#paint0_radial_7026_456437)"/>
<path d="M37.0265 26.8735C33.5866 26.8735 30.801 23.9576 30.801 20.3633H30.5595V26.8735H24.334V27.126C27.7739 27.126 30.5595 30.042 30.5595 33.6363H30.801V27.126H37.0265V26.8735Z" fill="white"/>
</g>
<defs>
<radialGradient id="paint0_radial_7026_456437" cx="0" cy="0" r="1" gradientUnits="userSpaceOnUse" gradientTransform="translate(30.6794 27) rotate(90) scale(8 7.65012)">
<stop stop-color="#FC74FE"/>
<stop offset="1" stop-color="#F50DB4"/>
</radialGradient>
<clipPath id="clip0_7026_456437">
<rect width="15.36" height="16" fill="white" transform="translate(23 19)"/>
</clipPath>
</defs>
</svg>
