<svg width="39" height="35" viewBox="0 0 39 35" fill="none" xmlns="http://www.w3.org/2000/svg">
<rect width="32" height="32" rx="16" fill="#9999E3" fill-opacity="0.25" style="mix-blend-mode:overlay"/>
<path fill-rule="evenodd" clip-rule="evenodd" d="M16.001 9.01172C13.5259 9.01172 11.5195 11.0181 11.5195 13.4932C11.5195 15.9682 13.5259 17.9746 16.001 17.9746C18.476 17.9746 20.4824 15.9682 20.4824 13.4932C20.4824 11.0181 18.476 9.01172 16.001 9.01172ZM13.0195 13.4932C13.0195 11.8466 14.3544 10.5117 16.001 10.5117C17.6476 10.5117 18.9824 11.8466 18.9824 13.4932C18.9824 15.1398 17.6476 16.4746 16.001 16.4746C14.3544 16.4746 13.0195 15.1398 13.0195 13.4932Z" fill="white"/>
<path d="M10.5195 18.7812C10.5195 18.367 10.1837 18.0312 9.76953 18.0312C9.35532 18.0312 9.01953 18.367 9.01953 18.7812V21.2559C9.01953 21.6701 9.35532 22.0059 9.76953 22.0059H22.2324C22.6466 22.0059 22.9824 21.6701 22.9824 21.2559V18.7812C22.9824 18.367 22.6466 18.0312 22.2324 18.0312C21.8182 18.0312 21.4824 18.367 21.4824 18.7812V20.5059H10.5195V18.7812Z" fill="white"/>
<g clip-path="url(#clip0_7026_456436)">
<path d="M35.3295 19H26.0293C24.3724 19 23.0293 20.3431 23.0293 22V32C23.0293 33.6569 24.3724 35 26.0293 35H35.3295C36.9864 35 38.3295 33.6569 38.3295 32V22C38.3295 20.3431 36.9864 19 35.3295 19Z" fill="url(#paint0_radial_7026_456436)"/>
<path d="M37.0265 26.8735C33.5866 26.8735 30.801 23.9576 30.801 20.3633H30.5595V26.8735H24.334V27.126C27.7739 27.126 30.5595 30.042 30.5595 33.6363H30.801V27.126H37.0265V26.8735Z" fill="white"/>
</g>
<defs>
<radialGradient id="paint0_radial_7026_456436" cx="0" cy="0" r="1" gradientUnits="userSpaceOnUse" gradientTransform="translate(30.6794 27) rotate(90) scale(8 7.65012)">
<stop stop-color="#FC74FE"/>
<stop offset="1" stop-color="#F50DB4"/>
</radialGradient>
<clipPath id="clip0_7026_456436">
<rect width="15.36" height="16" fill="white" transform="translate(23 19)"/>
</clipPath>
</defs>
</svg>
