<svg width="39" height="35" viewBox="0 0 39 35" fill="none" xmlns="http://www.w3.org/2000/svg">
<rect width="32" height="32" rx="16" fill="#9999E3" fill-opacity="0.25" style="mix-blend-mode:overlay"/>
<g clip-path="url(#clip0_7026_456438)">
<path fill-rule="evenodd" clip-rule="evenodd" d="M13.1021 18.8979C10.2539 18.7163 8 16.3486 8 13.4545C8 10.4421 10.4421 8 13.4545 8C16.3486 8 18.7163 10.2539 18.8979 13.1021C21.7461 13.2838 24 15.6514 24 18.5455C24 21.5579 21.5579 24 18.5455 24C15.6514 24 13.2838 21.7461 13.1021 18.8979ZM9.45455 13.4545C9.45455 11.2454 11.2454 9.45455 13.4545 9.45455C15.5787 9.45455 17.3162 11.1103 17.4467 13.2016C15.3158 13.6375 13.6375 15.3158 13.2016 17.4467C11.1103 17.3162 9.45455 15.5787 9.45455 13.4545ZM22.5455 18.5455C22.5455 20.7546 20.7546 22.5455 18.5455 22.5455C16.3363 22.5455 14.5455 20.7546 14.5455 18.5455C14.5455 16.3363 16.3363 14.5455 18.5455 14.5455C20.7546 14.5455 22.5455 16.3363 22.5455 18.5455Z" fill="white"/>
</g>
<g clip-path="url(#clip1_7026_456438)">
<path d="M35.3295 19H26.0293C24.3724 19 23.0293 20.3431 23.0293 22V32C23.0293 33.6569 24.3724 35 26.0293 35H35.3295C36.9864 35 38.3295 33.6569 38.3295 32V22C38.3295 20.3431 36.9864 19 35.3295 19Z" fill="url(#paint0_radial_7026_456438)"/>
<path d="M37.0265 26.8735C33.5866 26.8735 30.801 23.9576 30.801 20.3633H30.5595V26.8735H24.334V27.126C27.7739 27.126 30.5595 30.042 30.5595 33.6363H30.801V27.126H37.0265V26.8735Z" fill="white"/>
</g>
<defs>
<radialGradient id="paint0_radial_7026_456438" cx="0" cy="0" r="1" gradientUnits="userSpaceOnUse" gradientTransform="translate(30.6794 27) rotate(90) scale(8 7.65012)">
<stop stop-color="#FC74FE"/>
<stop offset="1" stop-color="#F50DB4"/>
</radialGradient>
<clipPath id="clip0_7026_456438">
<rect width="16" height="16" fill="white" transform="translate(8 8)"/>
</clipPath>
<clipPath id="clip1_7026_456438">
<rect width="15.36" height="16" fill="white" transform="translate(23 19)"/>
</clipPath>
</defs>
</svg>
