<svg xmlns="http://www.w3.org/2000/svg" width="20" height="20" viewBox="0 0 20 20" fill="none">
  <path fill-rule="evenodd" clip-rule="evenodd" d="M13.8269 17.604C12.6137 18.0638 11.3133 18.3005 10 18.3005L10 9.15024L10 0C11.3133 0 12.6137 0.236677 13.8269 0.69652C15.0402 1.15636 16.1427 1.83036 17.0713 2.68004C17.9999 3.52972 18.7365 4.53843 19.2391 5.64859C19.7416 6.75875 20.0003 7.94861 20.0003 9.15024C20.0003 10.3519 19.7416 11.5417 19.2391 12.6519C18.7365 13.762 17.9999 14.7708 17.0713 15.6204C16.1427 16.4701 15.0402 17.1441 13.8269 17.604ZM13.7273 11.6435C14.6342 11.6435 15.3694 10.9083 15.3694 10.0014C15.3694 9.09455 14.6342 8.35938 13.7273 8.35938C12.8204 8.35938 12.0852 9.09455 12.0852 10.0014C12.0852 10.9083 12.8204 11.6435 13.7273 11.6435Z" fill="url(#paint0_radial_3852_196507)"/>
  <path fill-rule="evenodd" clip-rule="evenodd" d="M6.17334 2.39611C7.38663 1.93626 8.68702 1.69958 10.0003 1.69958V10.8498L10.0003 20.0001C8.68702 20.0001 7.38663 19.7634 6.17334 19.3035C4.96005 18.8437 3.85763 18.1697 2.92901 17.32C2.0004 16.4703 1.26379 15.4616 0.761226 14.3515C0.258665 13.2413 0 12.0514 0 10.8498C0 9.64819 0.258665 8.45833 0.761226 7.34818C1.26379 6.23802 2.0004 5.2293 2.92901 4.37963C3.85763 3.52995 4.96005 2.85595 6.17334 2.39611ZM6.23683 11.6436C7.14373 11.6436 7.87893 10.9084 7.87893 10.0015C7.87893 9.09461 7.14373 8.35943 6.23683 8.35943C5.32992 8.35943 4.59473 9.09461 4.59473 10.0015C4.59473 10.9084 5.32992 11.6436 6.23683 11.6436Z" fill="url(#paint1_radial_3852_196507)"/>
  <defs>
    <radialGradient id="paint0_radial_3852_196507" cx="0" cy="0" r="1" gradientUnits="userSpaceOnUse" gradientTransform="translate(10 18.3005) rotate(-52.5446) scale(20.2988 19.1771)">
      <stop stop-color="#F2A4FF"/>
      <stop offset="1" stop-color="#6D28FF"/>
    </radialGradient>
    <radialGradient id="paint1_radial_3852_196507" cx="0" cy="0" r="1" gradientUnits="userSpaceOnUse" gradientTransform="translate(10.0003 1.69959) rotate(124.003) scale(20.8462 18.0424)">
      <stop stop-color="#FFCD6B"/>
      <stop offset="1" stop-color="#EA5DD3"/>
    </radialGradient>
  </defs>
</svg>