<svg width="226" height="226" viewBox="0 0 226 226" fill="none" xmlns="http://www.w3.org/2000/svg">
<g clip-path="url(#clip0_7945_679768)">
<path d="M123.906 37.8558C123.906 20.0714 138.38 5.64844 156.228 5.64844C174.076 5.64844 188.55 20.0714 188.55 37.8558C206.398 37.8558 220.872 52.2787 220.872 70.0631C220.872 79.3932 216.822 87.7369 210.459 93.6146C222.802 98.1437 231.65 109.869 231.65 123.737C231.65 138.12 222.115 150.168 209.055 154.293C209.671 156.548 210.105 158.863 210.105 161.308C210.105 174.312 200.823 185.142 188.5 187.608C188.5 187.789 188.55 187.96 188.55 188.141C188.55 205.925 174.076 220.348 156.228 220.348C138.38 220.348 123.906 205.925 123.906 188.141L123.906 37.8558ZM107.744 37.8558C107.744 20.0714 93.27 5.64844 75.4221 5.64844C57.5743 5.64844 43.0998 20.0714 43.0998 37.8558C25.252 37.8558 10.7775 52.2787 10.7775 70.0631C10.7775 79.3932 14.8279 87.7369 21.1913 93.6146C8.84829 98.1437 0 109.869 0 123.737C0 138.12 9.53508 150.168 22.5954 154.293C21.9792 156.548 21.5449 158.863 21.5449 161.308C21.5449 174.312 30.8273 185.142 43.1504 187.608C43.1504 187.789 43.0999 187.96 43.0999 188.141C43.0999 205.925 57.5743 220.348 75.4222 220.348C93.27 220.348 107.744 205.925 107.744 188.141L107.744 37.8558Z" fill="url(#paint0_linear_7945_679768)"/>
</g>
<defs>
<linearGradient id="paint0_linear_7945_679768" x1="154.649" y1="220.348" x2="154.649" y2="5.64844" gradientUnits="userSpaceOnUse">
<stop stop-color="#FFD2B9"/>
<stop offset="0.289583" stop-color="#C99BED"/>
<stop offset="1" stop-color="#0075FF"/>
<stop offset="1" stop-color="#0075FF"/>
</linearGradient>
<clipPath id="clip0_7945_679768">
<rect width="226" height="226" fill="white"/>
</clipPath>
</defs>
</svg>