<svg width="25" height="24" viewBox="0 0 25 24" fill="none" xmlns="http://www.w3.org/2000/svg">
<rect width="24" height="24" rx="12" fill="#537FEE"/>
<g clip-path="url(#clip0_7026_443090)">
<path d="M11.9983 3L11.8672 3.43298V15.9961L11.9983 16.1233L17.9964 12.6762L11.9983 3Z" fill="#BECDF9"/>
<path d="M11.9982 3L6 12.6762L11.9982 16.1233V10.0255V3Z" fill="white"/>
<path d="M11.9977 17.2275L11.9238 17.3151V21.7903L11.9977 22L17.9995 13.7822L11.9977 17.2275Z" fill="#BECDF9"/>
<path d="M11.9982 22V17.2275L6 13.7822L11.9982 22Z" fill="white"/>
<path d="M11.998 16.1232L17.9961 12.6761L11.998 10.0254V16.1232Z" fill="#7799F1"/>
<path d="M6 12.6761L11.9982 16.1232V10.0254L6 12.6761Z" fill="#BECDF9"/>
</g>
<g clip-path="url(#clip1_7026_443090)">
<path d="M21.9767 12H16.0234C14.3666 12 13.0234 13.3431 13.0234 15V21C13.0234 22.6569 14.3666 24 16.0234 24H21.9767C23.6336 24 24.9767 22.6569 24.9767 21V15C24.9767 13.3431 23.6336 12 21.9767 12Z" fill="url(#paint0_radial_7026_443090)"/>
<path d="M23.957 17.9052C21.2696 17.9052 19.0933 15.7182 19.0933 13.0225H18.9047V17.9052H14.041V18.0945C16.7284 18.0945 18.9047 20.2815 18.9047 22.9772H19.0933V18.0945H23.957V17.9052Z" fill="white"/>
</g>
<defs>
<radialGradient id="paint0_radial_7026_443090" cx="0" cy="0" r="1" gradientUnits="userSpaceOnUse" gradientTransform="translate(19.0001 18) rotate(90) scale(6 5.97665)">
<stop stop-color="#FC74FE"/>
<stop offset="1" stop-color="#F50DB4"/>
</radialGradient>
<clip-path id="clip0_7026_443090">
<rect width="12" height="19" fill="white" transform="translate(6 3)"/>
</clip-path>
<clip-path id="clip1_7026_443090">
<rect width="12" height="12" fill="white" transform="translate(13 12)"/>
</clip-path>
</defs>
</svg>
