<svg width="24" height="24" viewBox="0 0 24 24" fill="none" xmlns="http://www.w3.org/2000/svg">
<g clip-path="url(#clip0_7026_443092)">
<path d="M11.9735 23.9568C18.5679 23.9568 23.9138 18.6109 23.9138 12.0165C23.9138 5.42203 18.5679 0.0761719 11.9735 0.0761719C5.37906 0.0761719 0.0332031 5.42203 0.0332031 12.0165C0.0332031 18.6109 5.37906 23.9568 11.9735 23.9568Z" fill="url(#paint0_radial_7026_443092)"/>
<path d="M7.40623 15.1555H5.70703C5.84574 17.8083 8.0651 20.1144 12.0009 20.1144C15.9195 20.1144 18.4163 17.9643 18.4163 15.1901C18.4163 9.9192 10.4578 10.214 10.4578 7.16233C10.4578 6.31274 11.0994 5.30709 12.5906 5.30709C14.255 5.30709 16.2143 6.6075 16.3531 8.27201H18.0349C17.8615 5.5845 15.2433 3.71191 11.9143 3.71191C8.46389 3.71191 5.86308 5.72321 5.86308 8.56677C5.86308 13.9938 13.8216 13.2829 13.8216 16.6293C13.8216 17.6697 13.18 18.5365 11.5675 18.5365C9.55624 18.5365 7.52759 17.1321 7.40623 15.1555ZM8.82801 7.56112C8.82801 11.6877 16.7171 10.8728 16.7171 15.2768C16.7171 16.5947 15.8503 17.7563 14.8099 18.051C15.174 17.7043 15.4514 16.9414 15.4514 16.2132C15.4514 12.1386 7.54494 12.6934 7.54494 8.51476C7.54494 7.11031 8.44655 5.98329 9.57357 5.63652C9.14011 6.15668 8.82801 6.83289 8.82801 7.56112Z" fill="white"/>
<g clip-path="url(#clip1_7026_443092)">
<path d="M21.9767 12H16.0234C14.3666 12 13.0234 13.3431 13.0234 15V21C13.0234 22.6569 14.3666 24 16.0234 24H21.9767C23.6336 24 24.9767 22.6569 24.9767 21V15C24.9767 13.3431 23.6336 12 21.9767 12Z" fill="url(#paint1_radial_7026_443092)"/>
<path d="M23.957 17.9052C21.2696 17.9052 19.0933 15.7182 19.0933 13.0225H18.9047V17.9052H14.041V18.0945C16.7284 18.0945 18.9047 20.2815 18.9047 22.9772H19.0933V18.0945H23.957V17.9052Z" fill="white"/>
</g>
</g>
<defs>
<radialGradient id="paint0_radial_7026_443092" cx="0" cy="0" r="1" gradientUnits="userSpaceOnUse" gradientTransform="translate(11.9735 37.2703) rotate(-90) scale(37.1941)">
<stop stop-color="#FFEF79"/>
<stop offset="1" stop-color="#00C2A1"/>
</radialGradient>
<radialGradient id="paint1_radial_7026_443092" cx="0" cy="0" r="1" gradientUnits="userSpaceOnUse" gradientTransform="translate(19.0001 18) rotate(90) scale(6 5.97665)">
<stop stop-color="#FC74FE"/>
<stop offset="1" stop-color="#F50DB4"/>
</radialGradient>
<clip-path id="clip0_7026_443092">
<rect width="24" height="24" fill="white"/>
</clip-path>
<clip-path id="clip1_7026_443092">
<rect width="12" height="12" fill="white" transform="translate(13 12)"/>
</clip-path>
</defs>
</svg>
