<svg width="25" height="24" viewBox="0 0 25 24" fill="none" xmlns="http://www.w3.org/2000/svg">
<circle cx="12" cy="12" r="12" fill="url(#paint0_radial_7026_443093)"/>
<path d="M7.60342 14.9993H5.99414C6.12551 17.5068 8.22742 19.6865 11.955 19.6865C15.6662 19.6865 18.0309 17.6543 18.0309 15.032C18.0309 10.0498 10.4935 10.3284 10.4935 7.444C10.4935 6.64095 11.1011 5.69039 12.5133 5.69039C14.0898 5.69039 15.9454 6.91956 16.0767 8.49289H17.6696C17.5054 5.95261 15.0258 4.18262 11.8729 4.18262C8.60511 4.18262 6.14193 6.08373 6.14193 8.7715C6.14193 13.9012 13.6793 13.2293 13.6793 16.3923C13.6793 17.3757 13.0717 18.1951 11.5445 18.1951C9.63964 18.1951 7.71836 16.8676 7.60342 14.9993ZM8.94995 7.82095C8.94995 11.7215 16.4216 10.9512 16.4216 15.114C16.4216 16.3595 15.6005 17.4576 14.6153 17.7362C14.9601 17.4084 15.2228 16.6873 15.2228 15.999C15.2228 12.1476 7.73479 12.6721 7.73479 8.72233C7.73479 7.39484 8.58869 6.32956 9.65606 6.00178C9.24553 6.49345 8.94995 7.13261 8.94995 7.82095Z" fill="white"/>
<g clip-path="url(#clip0_7026_443093)">
<path d="M21.9767 12H16.0234C14.3666 12 13.0234 13.3431 13.0234 15V21C13.0234 22.6569 14.3666 24 16.0234 24H21.9767C23.6336 24 24.9767 22.6569 24.9767 21V15C24.9767 13.3431 23.6336 12 21.9767 12Z" fill="url(#paint1_radial_7026_443093)"/>
<path d="M23.957 17.9052C21.2696 17.9052 19.0933 15.7182 19.0933 13.0225H18.9047V17.9052H14.041V18.0945C16.7284 18.0945 18.9047 20.2815 18.9047 22.9772H19.0933V18.0945H23.957V17.9052Z" fill="white"/>
</g>
<defs>
<radialGradient id="paint0_radial_7026_443093" cx="0" cy="0" r="1" gradientUnits="userSpaceOnUse" gradientTransform="translate(12 29) rotate(-90) scale(39 46.8)">
<stop stop-color="#FFD232"/>
<stop offset="1" stop-color="#FF6D6D"/>
</radialGradient>
<radialGradient id="paint1_radial_7026_443093" cx="0" cy="0" r="1" gradientUnits="userSpaceOnUse" gradientTransform="translate(19.0001 18) rotate(90) scale(6 5.97665)">
<stop stop-color="#FC74FE"/>
<stop offset="1" stop-color="#F50DB4"/>
</radialGradient>
<clip-path id="clip0_7026_443093">
<rect width="12" height="12" fill="white" transform="translate(13 12)"/>
</clip-path>
</defs>
</svg>
