<svg width="24" height="24" viewBox="0 0 24 24" fill="none" xmlns="http://www.w3.org/2000/svg">
<g clip-path="url(#clip0_7026_443100)">
<path d="M11.9735 23.9568C18.5679 23.9568 23.9138 18.6109 23.9138 12.0165C23.9138 5.42203 18.5679 0.0761719 11.9735 0.0761719C5.37906 0.0761719 0.0332031 5.42203 0.0332031 12.0165C0.0332031 18.6109 5.37906 23.9568 11.9735 23.9568Z" fill="url(#paint0_radial_7026_443100)"/>
<path d="M7.40623 15.1555H5.70703C5.84574 17.8083 8.0651 20.1144 12.0009 20.1144C15.9195 20.1144 18.4163 17.9643 18.4163 15.1901C18.4163 9.9192 10.4578 10.214 10.4578 7.16233C10.4578 6.31274 11.0994 5.30709 12.5906 5.30709C14.255 5.30709 16.2143 6.6075 16.3531 8.27201H18.0349C17.8615 5.5845 15.2433 3.71191 11.9143 3.71191C8.46389 3.71191 5.86308 5.72321 5.86308 8.56677C5.86308 13.9938 13.8216 13.2829 13.8216 16.6293C13.8216 17.6697 13.18 18.5365 11.5675 18.5365C9.55624 18.5365 7.52759 17.1321 7.40623 15.1555ZM8.82801 7.56112C8.82801 11.6877 16.7171 10.8728 16.7171 15.2768C16.7171 16.5947 15.8503 17.7563 14.8099 18.051C15.174 17.7043 15.4514 16.9414 15.4514 16.2132C15.4514 12.1386 7.54494 12.6934 7.54494 8.51476C7.54494 7.11031 8.44655 5.98329 9.57357 5.63652C9.14011 6.15668 8.82801 6.83289 8.82801 7.56112Z" fill="white"/>
<rect x="13" y="12" width="12" height="12" rx="3" fill="#FF0420"/>
<path d="M17.25 19.594C16.8924 19.594 16.5996 19.51 16.3716 19.342C16.146 19.1716 16.0332 18.9268 16.0332 18.6124C16.0332 18.5452 16.0404 18.466 16.0548 18.37C16.0932 18.154 16.1484 17.8948 16.2204 17.59C16.4244 16.7644 16.9524 16.3516 17.802 16.3516C18.0324 16.3516 18.2412 16.39 18.4236 16.4692C18.606 16.5436 18.75 16.6588 18.8556 16.8124C18.9612 16.9636 19.014 17.1436 19.014 17.3524C19.014 17.4148 19.0068 17.494 18.9924 17.59C18.9468 17.8564 18.894 18.118 18.8292 18.37C18.7236 18.7804 18.5436 19.09 18.2844 19.294C18.0276 19.4956 17.682 19.594 17.25 19.594ZM17.3148 18.946C17.4828 18.946 17.6244 18.8956 17.742 18.7972C17.862 18.6988 17.9484 18.5476 17.9988 18.3412C18.0684 18.058 18.1212 17.8132 18.1572 17.602C18.1692 17.5396 18.1764 17.4748 18.1764 17.4076C18.1764 17.134 18.0348 16.9972 17.7492 16.9972C17.5812 16.9972 17.4372 17.0476 17.3172 17.146C17.1996 17.2444 17.1156 17.3956 17.0652 17.602C17.01 17.8036 16.9572 18.0484 16.902 18.3412C16.89 18.4012 16.8828 18.4636 16.8828 18.5308C16.8804 18.8092 17.0268 18.946 17.3148 18.946Z" fill="white"/>
<path d="M19.2239 19.5501C19.1903 19.5501 19.1663 19.5405 19.1471 19.5189C19.1327 19.4949 19.1279 19.4685 19.1327 19.4373L19.7543 16.5093C19.7591 16.4757 19.7759 16.4493 19.8047 16.4277C19.8311 16.4061 19.8599 16.3965 19.8911 16.3965H21.0887C21.4223 16.3965 21.6887 16.4661 21.8903 16.6029C22.0943 16.7421 22.1975 16.9413 22.1975 17.2029C22.1975 17.2773 22.1879 17.3565 22.1711 17.4381C22.0967 17.7837 21.9455 18.0381 21.7151 18.2037C21.4895 18.3693 21.1799 18.4509 20.7863 18.4509H20.1791L19.9727 19.4373C19.9655 19.4709 19.9511 19.4973 19.9223 19.5189C19.8959 19.5405 19.8671 19.5501 19.8359 19.5501H19.2239ZM20.8175 17.8293C20.9447 17.8293 21.0527 17.7957 21.1463 17.7261C21.2423 17.6565 21.3047 17.5581 21.3359 17.4285C21.3455 17.3781 21.3503 17.3325 21.3503 17.2941C21.3503 17.2077 21.3239 17.1405 21.2735 17.0949C21.2231 17.0469 21.1343 17.0229 21.0119 17.0229H20.4719L20.3015 17.8293H20.8175Z" fill="white"/>
</g>
<defs>
<radialGradient id="paint0_radial_7026_443100" cx="0" cy="0" r="1" gradientUnits="userSpaceOnUse" gradientTransform="translate(11.9735 37.2703) rotate(-90) scale(37.1941)">
<stop stop-color="#FFEF79"/>
<stop offset="1" stop-color="#00C2A1"/>
</radialGradient>
<clip-path id="clip0_7026_443100">
<rect width="24" height="24" fill="white"/>
</clip-path>
</defs>
</svg>
