<svg width="24" height="24" viewBox="0 0 24 24" fill="none" xmlns="http://www.w3.org/2000/svg">
<g clip-path="url(#clip0_5923_153539)">
<path d="M11.9735 23.9568C18.5679 23.9568 23.9138 18.6109 23.9138 12.0165C23.9138 5.42203 18.5679 0.0761719 11.9735 0.0761719C5.37906 0.0761719 0.0332031 5.42203 0.0332031 12.0165C0.0332031 18.6109 5.37906 23.9568 11.9735 23.9568Z" fill="url(#paint0_radial_5923_153539)"/>
<path d="M7.40623 15.1555H5.70703C5.84574 17.8083 8.0651 20.1144 12.0009 20.1144C15.9195 20.1144 18.4163 17.9643 18.4163 15.1901C18.4163 9.9192 10.4578 10.214 10.4578 7.16233C10.4578 6.31274 11.0994 5.30709 12.5906 5.30709C14.255 5.30709 16.2143 6.6075 16.3531 8.27201H18.0349C17.8615 5.5845 15.2433 3.71191 11.9143 3.71191C8.46389 3.71191 5.86308 5.72321 5.86308 8.56677C5.86308 13.9938 13.8216 13.2829 13.8216 16.6293C13.8216 17.6697 13.18 18.5365 11.5675 18.5365C9.55624 18.5365 7.52759 17.1321 7.40623 15.1555ZM8.82801 7.56112C8.82801 11.6877 16.7171 10.8728 16.7171 15.2768C16.7171 16.5947 15.8503 17.7563 14.8099 18.051C15.174 17.7043 15.4514 16.9414 15.4514 16.2132C15.4514 12.1386 7.54494 12.6934 7.54494 8.51476C7.54494 7.11031 8.44655 5.98329 9.57357 5.63652C9.14011 6.15668 8.82801 6.83289 8.82801 7.56112Z" fill="white"/>
<rect x="13" y="12" width="12" height="12" rx="3.3" fill="#F2F4F7"/>
<path d="M16.375 18.0805L19.1864 19.7122V16.8242L16.375 18.0805Z" fill="white" fill-opacity="0.602"/>
<g opacity="0.6">
<mask id="mask0_5923_153539" style="mask-type:luminance" maskUnits="userSpaceOnUse" x="16" y="16" width="7" height="4">
<g opacity="0.6">
<path d="M16 16.6982H22.138V19.9078H16V16.6982Z" fill="white"/>
</g>
</mask>
<g mask="url(#mask0_5923_153539)">
<path d="M19.0696 16.6982L16 18.0943L19.0696 19.9078L22.138 18.0943L19.0696 16.6982Z" fill="#010101"/>
</g>
</g>
<g opacity="0.45">
<mask id="mask1_5923_153539" style="mask-type:luminance" maskUnits="userSpaceOnUse" x="16" y="13" width="4" height="7">
<g opacity="0.45">
<path d="M16 13H19.0696V19.9065H16V13Z" fill="white"/>
</g>
</mask>
<g mask="url(#mask1_5923_153539)">
<path d="M16 18.0931L19.0696 19.9065V13L16 18.0931Z" fill="#010101"/>
</g>
</g>
<g opacity="0.8">
<mask id="mask2_5923_153539" style="mask-type:luminance" maskUnits="userSpaceOnUse" x="19" y="13" width="4" height="7">
<g opacity="0.8">
<path d="M19.0723 13H22.1418V19.9065H19.0723V13Z" fill="white"/>
</g>
</mask>
<g mask="url(#mask2_5923_153539)">
<path d="M19.0723 13V19.9065L22.1406 18.0931L19.0723 13Z" fill="#010101"/>
</g>
</g>
<g opacity="0.45">
<mask id="mask3_5923_153539" style="mask-type:luminance" maskUnits="userSpaceOnUse" x="16" y="18" width="4" height="5">
<g opacity="0.45">
<path d="M16 18.6758H19.0696V23.0002H16V18.6758Z" fill="white"/>
</g>
</mask>
<g mask="url(#mask3_5923_153539)">
<path d="M16 18.6758L19.0696 23.0002V20.4893L16 18.6758Z" fill="#010101"/>
</g>
</g>
<g opacity="0.8">
<mask id="mask4_5923_153539" style="mask-type:luminance" maskUnits="userSpaceOnUse" x="19" y="18" width="4" height="5">
<g opacity="0.8">
<path d="M19.0723 18.6758H22.143V23.0002H19.0723V18.6758Z" fill="white"/>
</g>
</mask>
<g mask="url(#mask4_5923_153539)">
<path d="M19.0723 20.4893V23.0002L22.143 18.6758L19.0723 20.4893Z" fill="#010101"/>
</g>
</g>
</g>
<defs>
<radialGradient id="paint0_radial_5923_153539" cx="0" cy="0" r="1" gradientUnits="userSpaceOnUse" gradientTransform="translate(11.9735 37.2703) rotate(-90) scale(37.1941)">
<stop stop-color="#FFEF79"/>
<stop offset="1" stop-color="#00C2A1"/>
</radialGradient>
<clipPath id="clip0_5923_153539">
<rect width="24" height="24" fill="white"/>
</clipPath>
</defs>
</svg>
