<svg width="25" height="24" viewBox="0 0 25 24" fill="none" xmlns="http://www.w3.org/2000/svg">
<g clip-path="url(#clip0_5923_153541)">
<path d="M12 0C18.6271 0 24 5.37288 24 12C24 18.6271 18.6269 24 12 24C5.37312 24 0 18.6286 0 12C0 5.37144 5.37216 0 12 0Z" fill="#53AE94"/>
<path d="M13.4806 10.4015V8.6164H17.5628V5.89648H6.44696V8.6164H10.5296V10.4001C7.2116 10.5525 4.7168 11.2096 4.7168 11.9968C4.7168 12.784 7.2128 13.4411 10.5296 13.5945V19.3125H13.4816V13.594C16.7936 13.4411 19.2834 12.7845 19.2834 11.998C19.2834 11.2115 16.7936 10.5549 13.4816 10.402M13.4816 13.1097V13.1082C13.3983 13.1135 12.9704 13.1392 12.0176 13.1392C11.2558 13.1392 10.7199 13.1176 10.531 13.1078V13.1102C7.59968 12.9803 5.4116 12.4698 5.4116 11.859C5.4116 11.2482 7.59992 10.7385 10.531 10.6084V12.6016C10.723 12.6148 11.2722 12.6472 12.0301 12.6472C12.9404 12.6472 13.3981 12.6093 13.4821 12.6016V10.6084C16.4077 10.7387 18.5907 11.2497 18.5907 11.8583C18.5907 12.467 16.4067 12.9782 13.4821 13.1085" fill="white"/>
</g>
<rect x="13" y="12" width="12" height="12" rx="3.3" fill="#F2F4F7"/>
<path d="M16.375 18.0805L19.1864 19.7122V16.8242L16.375 18.0805Z" fill="white" fill-opacity="0.602"/>
<g opacity="0.6">
<mask id="mask0_5923_153541" style="mask-type:luminance" maskUnits="userSpaceOnUse" x="16" y="16" width="7" height="4">
<g opacity="0.6">
<path d="M16 16.6982H22.138V19.9078H16V16.6982Z" fill="white"/>
</g>
</mask>
<g mask="url(#mask0_5923_153541)">
<path d="M19.0696 16.6982L16 18.0943L19.0696 19.9078L22.138 18.0943L19.0696 16.6982Z" fill="#010101"/>
</g>
</g>
<g opacity="0.45">
<mask id="mask1_5923_153541" style="mask-type:luminance" maskUnits="userSpaceOnUse" x="16" y="13" width="4" height="7">
<g opacity="0.45">
<path d="M16 13H19.0696V19.9065H16V13Z" fill="white"/>
</g>
</mask>
<g mask="url(#mask1_5923_153541)">
<path d="M16 18.0931L19.0696 19.9065V13L16 18.0931Z" fill="#010101"/>
</g>
</g>
<g opacity="0.8">
<mask id="mask2_5923_153541" style="mask-type:luminance" maskUnits="userSpaceOnUse" x="19" y="13" width="4" height="7">
<g opacity="0.8">
<path d="M19.0723 13H22.1418V19.9065H19.0723V13Z" fill="white"/>
</g>
</mask>
<g mask="url(#mask2_5923_153541)">
<path d="M19.0723 13V19.9065L22.1406 18.0931L19.0723 13Z" fill="#010101"/>
</g>
</g>
<g opacity="0.45">
<mask id="mask3_5923_153541" style="mask-type:luminance" maskUnits="userSpaceOnUse" x="16" y="18" width="4" height="5">
<g opacity="0.45">
<path d="M16 18.6758H19.0696V23.0002H16V18.6758Z" fill="white"/>
</g>
</mask>
<g mask="url(#mask3_5923_153541)">
<path d="M16 18.6758L19.0696 23.0002V20.4893L16 18.6758Z" fill="#010101"/>
</g>
</g>
<g opacity="0.8">
<mask id="mask4_5923_153541" style="mask-type:luminance" maskUnits="userSpaceOnUse" x="19" y="18" width="4" height="5">
<g opacity="0.8">
<path d="M19.0723 18.6758H22.143V23.0002H19.0723V18.6758Z" fill="white"/>
</g>
</mask>
<g mask="url(#mask4_5923_153541)">
<path d="M19.0723 20.4893V23.0002L22.143 18.6758L19.0723 20.4893Z" fill="#010101"/>
</g>
</g>
<defs>
<clipPath id="clip0_5923_153541">
<rect width="24" height="24" fill="white"/>
</clipPath>
</defs>
</svg>
