<svg width="25" height="24" viewBox="0 0 25 24" fill="none" xmlns="http://www.w3.org/2000/svg">
<g clip-path="url(#clip0_5923_153534)">
<path d="M12 23.9963C18.6274 23.9963 24 18.6245 24 11.9981C24 5.37174 18.6274 0 12 0C5.37258 0 0 5.37174 0 11.9981C0 18.6245 5.37258 23.9963 12 23.9963Z" fill="#F2F4F7"/>
<path d="M6.75195 12.1619L12.3747 15.4254V9.64941L6.75195 12.1619Z" fill="white" fill-opacity="0.602"/>
<g opacity="0.6">
<mask id="mask0_5923_153534" style="mask-type:luminance" maskUnits="userSpaceOnUse" x="6" y="9" width="13" height="7">
<g opacity="0.6">
<path d="M6 9.39551H18.2759V15.8146H6V9.39551Z" fill="white"/>
</g>
</mask>
<g mask="url(#mask0_5923_153534)">
<path d="M12.1392 9.39551L6 12.1876L12.1392 15.8146L18.2759 12.1876L12.1392 9.39551Z" fill="#010101"/>
</g>
</g>
<g opacity="0.45">
<mask id="mask1_5923_153534" style="mask-type:luminance" maskUnits="userSpaceOnUse" x="6" y="2" width="7" height="14">
<g opacity="0.45">
<path d="M6 2H12.1392V15.8131H6V2Z" fill="white"/>
</g>
</mask>
<g mask="url(#mask1_5923_153534)">
<path d="M6 12.1861L12.1392 15.8131V2L6 12.1861Z" fill="#010101"/>
</g>
</g>
<g opacity="0.8">
<mask id="mask2_5923_153534" style="mask-type:luminance" maskUnits="userSpaceOnUse" x="12" y="2" width="7" height="14">
<g opacity="0.8">
<path d="M12.1426 2H18.2817V15.8131H12.1426V2Z" fill="white"/>
</g>
</mask>
<g mask="url(#mask2_5923_153534)">
<path d="M12.1426 2V15.8131L18.2793 12.1861L12.1426 2Z" fill="#010101"/>
</g>
</g>
<g opacity="0.45">
<mask id="mask3_5923_153534" style="mask-type:luminance" maskUnits="userSpaceOnUse" x="6" y="13" width="7" height="9">
<g opacity="0.45">
<path d="M6 13.3516H12.1392V22.0004H6V13.3516Z" fill="white"/>
</g>
</mask>
<g mask="url(#mask3_5923_153534)">
<path d="M6 13.3506L12.1392 21.9995V16.9776L6 13.3506Z" fill="#010101"/>
</g>
</g>
<g opacity="0.8">
<mask id="mask4_5923_153534" style="mask-type:luminance" maskUnits="userSpaceOnUse" x="12" y="13" width="7" height="9">
<g opacity="0.8">
<path d="M12.1426 13.3516H18.2841V22.0004H12.1426V13.3516Z" fill="white"/>
</g>
</mask>
<g mask="url(#mask4_5923_153534)">
<path d="M12.1426 16.9786V22.0004L18.2841 13.3516L12.1426 16.9786Z" fill="#010101"/>
</g>
</g>
</g>
<rect x="13" y="12" width="12" height="12" rx="3.3" fill="#F2F4F7"/>
<path d="M16.375 18.0805L19.1864 19.7122V16.8242L16.375 18.0805Z" fill="white" fill-opacity="0.602"/>
<g opacity="0.6">
<mask id="mask5_5923_153534" style="mask-type:luminance" maskUnits="userSpaceOnUse" x="16" y="16" width="7" height="4">
<g opacity="0.6">
<path d="M16 16.6982H22.138V19.9078H16V16.6982Z" fill="white"/>
</g>
</mask>
<g mask="url(#mask5_5923_153534)">
<path d="M19.0696 16.6982L16 18.0943L19.0696 19.9078L22.138 18.0943L19.0696 16.6982Z" fill="#010101"/>
</g>
</g>
<g opacity="0.45">
<mask id="mask6_5923_153534" style="mask-type:luminance" maskUnits="userSpaceOnUse" x="16" y="13" width="4" height="7">
<g opacity="0.45">
<path d="M16 13H19.0696V19.9065H16V13Z" fill="white"/>
</g>
</mask>
<g mask="url(#mask6_5923_153534)">
<path d="M16 18.0931L19.0696 19.9065V13L16 18.0931Z" fill="#010101"/>
</g>
</g>
<g opacity="0.8">
<mask id="mask7_5923_153534" style="mask-type:luminance" maskUnits="userSpaceOnUse" x="19" y="13" width="4" height="7">
<g opacity="0.8">
<path d="M19.0723 13H22.1418V19.9065H19.0723V13Z" fill="white"/>
</g>
</mask>
<g mask="url(#mask7_5923_153534)">
<path d="M19.0723 13V19.9065L22.1406 18.0931L19.0723 13Z" fill="#010101"/>
</g>
</g>
<g opacity="0.45">
<mask id="mask8_5923_153534" style="mask-type:luminance" maskUnits="userSpaceOnUse" x="16" y="18" width="4" height="5">
<g opacity="0.45">
<path d="M16 18.6758H19.0696V23.0002H16V18.6758Z" fill="white"/>
</g>
</mask>
<g mask="url(#mask8_5923_153534)">
<path d="M16 18.6758L19.0696 23.0002V20.4893L16 18.6758Z" fill="#010101"/>
</g>
</g>
<g opacity="0.8">
<mask id="mask9_5923_153534" style="mask-type:luminance" maskUnits="userSpaceOnUse" x="19" y="18" width="4" height="5">
<g opacity="0.8">
<path d="M19.0723 18.6758H22.143V23.0002H19.0723V18.6758Z" fill="white"/>
</g>
</mask>
<g mask="url(#mask9_5923_153534)">
<path d="M19.0723 20.4893V23.0002L22.143 18.6758L19.0723 20.4893Z" fill="#010101"/>
</g>
</g>
<defs>
<clipPath id="clip0_5923_153534">
<rect width="24" height="24" fill="white"/>
</clipPath>
</defs>
</svg>
