<svg width="12" height="12" viewBox="0 0 12 12" fill="none" xmlns="http://www.w3.org/2000/svg">
<rect width="12" height="12" rx="3.3" fill="#213147"/>
<g clip-path="url(#clip0_5751_27069)">
<path d="M2.72461 4.43153V7.56753C2.72461 7.76913 2.83021 7.95153 3.00621 8.05393L5.72301 9.62193C5.89581 9.72113 6.11021 9.72113 6.28301 9.62193L8.99981 8.05393C9.17261 7.95473 9.28141 7.76913 9.28141 7.56753V4.43153C9.28141 4.22993 9.17581 4.04753 8.99981 3.94513L6.28301 2.37713C6.11021 2.27793 5.89581 2.27793 5.72301 2.37713L3.00621 3.94513C2.83341 4.04433 2.72781 4.22993 2.72781 4.43153H2.72461Z" fill="#213147"/>
<path d="M6.59362 6.60765L6.20642 7.67005C6.19682 7.69885 6.19682 7.73085 6.20642 7.76285L6.87202 9.59005L7.64322 9.14525L6.71842 6.60765C6.69602 6.55005 6.61602 6.55005 6.59362 6.60765Z" fill="#12AAFF"/>
<path d="M7.37076 4.8225C7.34836 4.7649 7.26836 4.7649 7.24596 4.8225L6.85876 5.8849C6.84916 5.9137 6.84916 5.9457 6.85876 5.9777L7.94996 8.9697L8.72116 8.5249L7.37076 4.8257V4.8225Z" fill="#12AAFF"/>
<path d="M6.00068 2.496C6.01988 2.496 6.03908 2.5024 6.05508 2.512L8.99268 4.208C9.02788 4.2272 9.04708 4.2656 9.04708 4.304V7.696C9.04708 7.7344 9.02468 7.7728 8.99268 7.792L6.05508 9.488C6.03908 9.4976 6.01988 9.504 6.00068 9.504C5.98148 9.504 5.96228 9.4976 5.94628 9.488L3.00868 7.792C2.97348 7.7728 2.95428 7.7344 2.95428 7.696V4.3008C2.95428 4.2624 2.97668 4.224 3.00868 4.2048L5.94628 2.5088C5.96228 2.4992 5.98148 2.4928 6.00068 2.4928V2.496ZM6.00068 2C5.89508 2 5.79268 2.0256 5.69668 2.08L2.75908 3.776C2.57028 3.8848 2.45508 4.0832 2.45508 4.3008V7.6928C2.45508 7.9104 2.57028 8.1088 2.75908 8.2176L5.69668 9.9136C5.78948 9.968 5.89508 9.9936 6.00068 9.9936C6.10628 9.9936 6.20868 9.968 6.30468 9.9136L9.24228 8.2176C9.43108 8.1088 9.54628 7.9104 9.54628 7.6928V4.3008C9.54628 4.0832 9.43108 3.8848 9.24228 3.776L6.30148 2.08C6.20868 2.0256 6.10308 2 5.99748 2H6.00068Z" fill="#9DCCED"/>
<path d="M4.05469 8.97287L4.32669 8.23047L4.87069 8.68167L4.36189 9.14887L4.05469 8.97287Z" fill="#213147"/>
<path d="M5.7504 4.06082H5.0048C4.9504 4.06082 4.8992 4.09602 4.88 4.14722L3.2832 8.52482L4.0544 8.96962L5.8144 4.14722C5.8304 4.10242 5.7984 4.05762 5.7536 4.05762L5.7504 4.06082Z" fill="white"/>
<path d="M7.05573 4.06082H6.31013C6.25573 4.06082 6.20453 4.09602 6.18533 4.14722L4.36133 9.14562L5.13253 9.59042L7.11653 4.14722C7.13253 4.10242 7.10053 4.05762 7.05573 4.05762V4.06082Z" fill="white"/>
</g>
<defs>
<clipPath id="clip0_5751_27069">
<rect width="8" height="8" fill="white" transform="translate(2 2)"/>
</clipPath>
</defs>
</svg>
