<svg xmlns="http://www.w3.org/2000/svg" width="16" height="16" viewBox="0 0 16 16" fill="none">
  <rect width="16" height="16" rx="4" fill="#FF0420"/>
  <path d="M5.66732 10.125C5.19052 10.125 4.80012 10.013 4.49612 9.78896C4.19532 9.56176 4.04492 9.23536 4.04492 8.81616C4.04492 8.72656 4.05452 8.62096 4.07372 8.49296C4.12492 8.20496 4.19852 7.85936 4.29452 7.45296C4.56652 6.35216 5.27052 5.80176 6.40332 5.80176C6.71052 5.80176 6.98892 5.85296 7.23212 5.95856C7.47532 6.05776 7.66732 6.21136 7.80812 6.41616C7.94892 6.61776 8.01932 6.85776 8.01932 7.13616C8.01932 7.21936 8.00972 7.32496 7.99052 7.45296C7.92972 7.80816 7.85932 8.15696 7.77292 8.49296C7.63212 9.04016 7.39212 9.45296 7.04652 9.72496C6.70412 9.99376 6.24332 10.125 5.66732 10.125ZM5.75372 9.26096C5.97772 9.26096 6.16652 9.19376 6.32332 9.06256C6.48332 8.93136 6.59852 8.72976 6.66572 8.45456C6.75852 8.07696 6.82892 7.75056 6.87692 7.46896C6.89292 7.38576 6.90252 7.29936 6.90252 7.20976C6.90252 6.84496 6.71372 6.66256 6.33292 6.66256C6.10892 6.66256 5.91692 6.72976 5.75692 6.86096C5.60012 6.99216 5.48812 7.19376 5.42092 7.46896C5.34732 7.73776 5.27692 8.06416 5.20332 8.45456C5.18732 8.53456 5.17772 8.61776 5.17772 8.70736C5.17452 9.07856 5.36972 9.26096 5.75372 9.26096Z" fill="white"/>
  <path d="M8.29783 10.0671C8.25303 10.0671 8.22103 10.0543 8.19543 10.0255C8.17623 9.9935 8.16983 9.9583 8.17623 9.9167L9.00503 6.0127C9.01143 5.9679 9.03383 5.9327 9.07223 5.9039C9.10743 5.8751 9.14583 5.8623 9.18743 5.8623H10.7842C11.229 5.8623 11.5842 5.9551 11.853 6.1375C12.125 6.3231 12.2626 6.5887 12.2626 6.9375C12.2626 7.0367 12.2498 7.14231 12.2274 7.25111C12.1282 7.71191 11.9266 8.0511 11.6194 8.2719C11.3186 8.4927 10.9058 8.6015 10.381 8.6015H9.57143L9.29623 9.9167C9.28663 9.9615 9.26743 9.9967 9.22903 10.0255C9.19383 10.0543 9.15543 10.0671 9.11383 10.0671H8.29783ZM10.4226 7.7727C10.5922 7.7727 10.7362 7.72791 10.861 7.63511C10.989 7.54231 11.0722 7.4111 11.1138 7.2383C11.1266 7.1711 11.133 7.11031 11.133 7.05911C11.133 6.9439 11.0978 6.8543 11.0306 6.7935C10.9634 6.7295 10.845 6.6975 10.6818 6.6975H9.96183L9.73463 7.7727H10.4226Z" fill="white"/>
</svg>