<svg width="24" height="24" viewBox="0 0 24 24" fill="none" xmlns="http://www.w3.org/2000/svg">
<path d="M11.9719 24C18.5838 24 23.9438 18.6274 23.9438 12C23.9438 5.37258 18.5838 0 11.9719 0C5.36 0 0 5.37258 0 12C0 18.6274 5.36 24 11.9719 24Z" fill="url(#paint0_linear_7026_456773)"/>
<path d="M14.4454 13.1796H21.2661C21.5284 13.1796 21.5813 12.8215 21.3427 12.7122L14.4458 9.56362V2.70025C14.4458 2.44406 14.1039 2.36 13.986 2.58728L11.1506 8.0594L8.00872 6.61298C7.70813 6.49129 7.5235 6.73664 7.62557 6.94746L9.49914 10.8214H2.67849C2.41616 10.8214 2.36329 11.1794 2.60186 11.2888L9.49875 14.4374V21.3007C9.49875 21.5569 9.84059 21.641 9.95851 21.4137L12.7939 15.9415L15.9358 17.388C16.2364 17.5097 16.421 17.2644 16.319 17.0535L14.4454 13.1796Z" fill="white"/>
<defs>
<linearGradient id="paint0_linear_7026_456773" x1="21.5283" y1="1.81818" x2="1.54367" y2="21.2404" gradientUnits="userSpaceOnUse">
<stop stop-color="#FA43BD"/>
<stop offset="1" stop-color="#FFA930"/>
</linearGradient>
</defs>
</svg>
