<svg width="24" height="24" viewBox="0 0 24 24" fill="none" xmlns="http://www.w3.org/2000/svg">
<g clip-path="url(#clip0_5757_27160)">
<path d="M11.9735 23.9568C18.5679 23.9568 23.9138 18.6109 23.9138 12.0165C23.9138 5.42203 18.5679 0.0761719 11.9735 0.0761719C5.37906 0.0761719 0.0332031 5.42203 0.0332031 12.0165C0.0332031 18.6109 5.37906 23.9568 11.9735 23.9568Z" fill="url(#paint0_radial_5757_27160)"/>
<path d="M7.40623 15.1555H5.70703C5.84574 17.8083 8.0651 20.1144 12.0009 20.1144C15.9195 20.1144 18.4163 17.9643 18.4163 15.1901C18.4163 9.9192 10.4578 10.214 10.4578 7.16233C10.4578 6.31274 11.0994 5.30709 12.5906 5.30709C14.255 5.30709 16.2143 6.6075 16.3531 8.27201H18.0349C17.8615 5.5845 15.2433 3.71191 11.9143 3.71191C8.46389 3.71191 5.86308 5.72321 5.86308 8.56677C5.86308 13.9938 13.8216 13.2829 13.8216 16.6293C13.8216 17.6697 13.18 18.5365 11.5675 18.5365C9.55624 18.5365 7.52759 17.1321 7.40623 15.1555ZM8.82801 7.56112C8.82801 11.6877 16.7171 10.8728 16.7171 15.2768C16.7171 16.5947 15.8503 17.7563 14.8099 18.051C15.174 17.7043 15.4514 16.9414 15.4514 16.2132C15.4514 12.1386 7.54494 12.6934 7.54494 8.51476C7.54494 7.11031 8.44655 5.98329 9.57357 5.63652C9.14011 6.15668 8.82801 6.83289 8.82801 7.56112Z" fill="white"/>
<rect x="13" y="12" width="12" height="12" rx="3.3" fill="#213147"/>
<g clip-path="url(#clip1_5757_27160)">
<path d="M15.7246 16.4315V19.5675C15.7246 19.7691 15.8302 19.9515 16.0062 20.0539L18.723 21.6219C18.8958 21.7211 19.1102 21.7211 19.283 21.6219L21.9998 20.0539C22.1726 19.9547 22.2814 19.7691 22.2814 19.5675V16.4315C22.2814 16.2299 22.1758 16.0475 21.9998 15.9451L19.283 14.3771C19.1102 14.2779 18.8958 14.2779 18.723 14.3771L16.0062 15.9451C15.8334 16.0443 15.7278 16.2299 15.7278 16.4315H15.7246Z" fill="#213147"/>
<path d="M19.5936 18.6077L19.2064 19.6701C19.1968 19.6989 19.1968 19.7309 19.2064 19.7629L19.872 21.5901L20.6432 21.1453L19.7184 18.6077C19.696 18.5501 19.616 18.5501 19.5936 18.6077Z" fill="#12AAFF"/>
<path d="M20.3708 16.8225C20.3484 16.7649 20.2684 16.7649 20.246 16.8225L19.8588 17.8849C19.8492 17.9137 19.8492 17.9457 19.8588 17.9777L20.95 20.9697L21.7212 20.5249L20.3708 16.8257V16.8225Z" fill="#12AAFF"/>
<path d="M19.0007 14.496C19.0199 14.496 19.0391 14.5024 19.0551 14.512L21.9927 16.208C22.0279 16.2272 22.0471 16.2656 22.0471 16.304V19.696C22.0471 19.7344 22.0247 19.7728 21.9927 19.792L19.0551 21.488C19.0391 21.4976 19.0199 21.504 19.0007 21.504C18.9815 21.504 18.9623 21.4976 18.9463 21.488L16.0087 19.792C15.9735 19.7728 15.9543 19.7344 15.9543 19.696V16.3008C15.9543 16.2624 15.9767 16.224 16.0087 16.2048L18.9463 14.5088C18.9623 14.4992 18.9815 14.4928 19.0007 14.4928V14.496ZM19.0007 14C18.8951 14 18.7927 14.0256 18.6967 14.08L15.7591 15.776C15.5703 15.8848 15.4551 16.0832 15.4551 16.3008V19.6928C15.4551 19.9104 15.5703 20.1088 15.7591 20.2176L18.6967 21.9136C18.7895 21.968 18.8951 21.9936 19.0007 21.9936C19.1063 21.9936 19.2087 21.968 19.3047 21.9136L22.2423 20.2176C22.4311 20.1088 22.5463 19.9104 22.5463 19.6928V16.3008C22.5463 16.0832 22.4311 15.8848 22.2423 15.776L19.3015 14.08C19.2087 14.0256 19.1031 14 18.9975 14H19.0007Z" fill="#9DCCED"/>
<path d="M17.0547 20.9729L17.3267 20.2305L17.8707 20.6817L17.3619 21.1489L17.0547 20.9729Z" fill="#213147"/>
<path d="M18.7504 16.0608H18.0048C17.9504 16.0608 17.8992 16.096 17.88 16.1472L16.2832 20.5248L17.0544 20.9696L18.8144 16.1472C18.8304 16.1024 18.7984 16.0576 18.7536 16.0576L18.7504 16.0608Z" fill="white"/>
<path d="M20.0557 16.0608H19.3101C19.2557 16.0608 19.2045 16.096 19.1853 16.1472L17.3613 21.1456L18.1325 21.5904L20.1165 16.1472C20.1325 16.1024 20.1005 16.0576 20.0557 16.0576V16.0608Z" fill="white"/>
</g>
</g>
<defs>
<radialGradient id="paint0_radial_5757_27160" cx="0" cy="0" r="1" gradientUnits="userSpaceOnUse" gradientTransform="translate(11.9735 37.2703) rotate(-90) scale(37.1941)">
<stop stop-color="#FFEF79"/>
<stop offset="1" stop-color="#00C2A1"/>
</radialGradient>
<clipPath id="clip0_5757_27160">
<rect width="24" height="24" fill="white"/>
</clipPath>
<clipPath id="clip1_5757_27160">
<rect width="8" height="8" fill="white" transform="translate(15 14)"/>
</clipPath>
</defs>
</svg>
