<svg width="39" height="35" viewBox="0 0 39 35" fill="none" xmlns="http://www.w3.org/2000/svg">
<rect width="32" height="32" rx="16" fill="white" fill-opacity="0.25" style="mix-blend-mode:overlay"/>
<g clip-path="url(#clip0_5921_152220)">
<path fill-rule="evenodd" clip-rule="evenodd" d="M13.1021 18.8979C10.2539 18.7163 8 16.3486 8 13.4545C8 10.4421 10.4421 8 13.4545 8C16.3486 8 18.7163 10.2539 18.8979 13.1021C21.7461 13.2838 24 15.6514 24 18.5455C24 21.5579 21.5579 24 18.5455 24C15.6514 24 13.2838 21.7461 13.1021 18.8979ZM9.45455 13.4545C9.45455 11.2454 11.2454 9.45455 13.4545 9.45455C15.5787 9.45455 17.3162 11.1103 17.4467 13.2016C15.3158 13.6375 13.6375 15.3158 13.2016 17.4467C11.1103 17.3162 9.45455 15.5787 9.45455 13.4545ZM22.5455 18.5455C22.5455 20.7546 20.7546 22.5455 18.5455 22.5455C16.3363 22.5455 14.5455 20.7546 14.5455 18.5455C14.5455 16.3363 16.3363 14.5455 18.5455 14.5455C20.7546 14.5455 22.5455 16.3363 22.5455 18.5455Z" fill="white"/>
</g>
<rect x="23" y="19" width="15.36" height="16" rx="3.3" fill="#213147"/>
<g clip-path="url(#clip1_5921_152220)">
<path d="M26.4863 24.9097V29.091C26.4863 29.3598 26.6215 29.603 26.8468 29.7396L30.3243 31.8302C30.5455 31.9625 30.8199 31.9625 31.0411 31.8302L34.5186 29.7396C34.7398 29.6073 34.879 29.3598 34.879 29.091V24.9097C34.879 24.6409 34.7439 24.3977 34.5186 24.2612L31.0411 22.1705C30.8199 22.0382 30.5455 22.0382 30.3243 22.1705L26.8468 24.2612C26.6256 24.3934 26.4904 24.6409 26.4904 24.9097H26.4863Z" fill="#213147"/>
<path d="M31.4384 27.8115L30.9428 29.228C30.9305 29.2664 30.9305 29.3091 30.9428 29.3518L31.7948 31.788L32.7819 31.195L31.5982 27.8115C31.5695 27.7347 31.4671 27.7347 31.4384 27.8115Z" fill="#12AAFF"/>
<path d="M32.4341 25.4306C32.4054 25.3538 32.303 25.3538 32.2744 25.4306L31.7787 26.8472C31.7665 26.8856 31.7665 26.9282 31.7787 26.9709L33.1755 30.9602L34.1626 30.3672L32.4341 25.4349V25.4306Z" fill="#12AAFF"/>
<path d="M30.6809 22.3283C30.7055 22.3283 30.7301 22.3369 30.7506 22.3497L34.5107 24.611C34.5558 24.6366 34.5803 24.6878 34.5803 24.739V29.2617C34.5803 29.3129 34.5517 29.3641 34.5107 29.3897L30.7506 31.651C30.7301 31.6638 30.7055 31.6723 30.6809 31.6723C30.6564 31.6723 30.6318 31.6638 30.6113 31.651L26.8512 29.3897C26.8061 29.3641 26.7816 29.3129 26.7816 29.2617V24.7347C26.7816 24.6835 26.8102 24.6323 26.8512 24.6067L30.6113 22.3454C30.6318 22.3326 30.6564 22.3241 30.6809 22.3241V22.3283ZM30.6809 21.667C30.5458 21.667 30.4147 21.7011 30.2918 21.7737L26.5317 24.035C26.29 24.1801 26.1426 24.4446 26.1426 24.7347V29.2574C26.1426 29.5475 26.29 29.8121 26.5317 29.9571L30.2918 32.2185C30.4106 32.291 30.5458 32.3251 30.6809 32.3251C30.8161 32.3251 30.9472 32.291 31.0701 32.2185L34.8302 29.9571C35.0719 29.8121 35.2193 29.5475 35.2193 29.2574V24.7347C35.2193 24.4446 35.0719 24.1801 34.8302 24.035L31.066 21.7737C30.9472 21.7011 30.812 21.667 30.6769 21.667H30.6809Z" fill="#9DCCED"/>
<path d="M28.1914 30.9645L28.5396 29.9746L29.2359 30.5762L28.5846 31.1991L28.1914 30.9645Z" fill="#213147"/>
<path d="M30.3611 24.4144H29.4068C29.3371 24.4144 29.2716 24.4614 29.247 24.5296L27.2031 30.3664L28.1903 30.9595L30.4431 24.5296C30.4635 24.4699 30.4226 24.4102 30.3652 24.4102L30.3611 24.4144Z" fill="white"/>
<path d="M32.0328 24.4144H31.0784C31.0088 24.4144 30.9433 24.4614 30.9187 24.5296L28.584 31.1942L29.5711 31.7872L32.1106 24.5296C32.1311 24.4699 32.0902 24.4102 32.0328 24.4102V24.4144Z" fill="white"/>
</g>
<defs>
<clipPath id="clip0_5921_152220">
<rect width="16" height="16" fill="white" transform="translate(8 8)"/>
</clipPath>
<clipPath id="clip1_5921_152220">
<rect width="10.24" height="10.6667" fill="white" transform="translate(25.5605 21.667)"/>
</clipPath>
</defs>
</svg>
