<svg width="39" height="35" viewBox="0 0 39 35" fill="none" xmlns="http://www.w3.org/2000/svg">
<rect width="32" height="32" rx="16" fill="#9999E3" fill-opacity="0.25" style="mix-blend-mode:overlay"/>
<g clip-path="url(#clip0_5625_82179)">
<path fill-rule="evenodd" clip-rule="evenodd" d="M16.5296 9.0849C16.2367 8.79201 15.7619 8.79201 15.469 9.0849L9.08295 15.4709C8.79006 15.7638 8.79006 16.2387 9.08295 16.5316L15.469 22.9176C15.7619 23.2105 16.2367 23.2105 16.5296 22.9176L22.9157 16.5316C23.2085 16.2387 23.2085 15.7638 22.9157 15.4709L16.5296 9.0849ZM11.3752 15.3L15.9993 10.6759L20.6234 15.3H11.3752ZM11.3727 16.7L15.9993 21.3266L20.6259 16.7H11.3727Z" fill="white"/>
</g>
<rect x="23" y="19" width="15.36" height="16" rx="3.3" fill="#0052FF"/>
<path d="M30.6722 31.7992C33.2217 31.7992 35.2883 29.6504 35.2883 26.9992C35.2883 24.3481 33.2217 22.1992 30.6722 22.1992C28.2535 22.1992 26.2695 24.1338 26.0723 26.5956H32.1736V27.4028H26.0723C26.2695 29.8646 28.2535 31.7992 30.6722 31.7992Z" fill="white"/>
<defs>
<clipPath id="clip0_5625_82179">
<rect width="16" height="16" fill="white" transform="translate(8 8)"/>
</clipPath>
</defs>
</svg>
