<svg width="39" height="35" viewBox="0 0 39 35" fill="none" xmlns="http://www.w3.org/2000/svg">
<rect width="32" height="32" rx="16" fill="white" fill-opacity="0.25" style="mix-blend-mode:overlay"/>
<path fill-rule="evenodd" clip-rule="evenodd" d="M16 9.01172C14.4163 9.01172 12.9515 9.47203 11.8637 10.2539C10.7772 11.035 10.0195 12.1803 10.0195 13.5215C10.0195 14.4631 10.393 15.3081 10.9915 15.9983C10.3933 16.6885 10.0195 17.5357 10.0195 18.4756C10.0195 19.8168 10.7772 20.9621 11.8637 21.7431C12.9515 22.525 14.4163 22.9854 16 22.9854C17.5837 22.9854 19.0485 22.525 20.1363 21.7431C21.2228 20.9621 21.9805 19.8168 21.9805 18.4756C21.9805 17.5357 21.6067 16.6885 21.0085 15.9983C21.607 15.3081 21.9805 14.4631 21.9805 13.5215C21.9805 12.1803 21.2228 11.035 20.1363 10.2539C19.0485 9.47203 17.5837 9.01172 16 9.01172ZM11.5195 13.5215C11.5195 12.7862 11.9328 12.0516 12.7393 11.4719C13.5445 10.8931 14.695 10.5117 16 10.5117C17.305 10.5117 18.4555 10.8931 19.2607 11.4719C20.0672 12.0516 20.4805 12.7862 20.4805 13.5215C20.4805 14.2568 20.0672 14.9913 19.2607 15.571C18.4555 16.1499 17.305 16.5312 16 16.5312C14.695 16.5312 13.5445 16.1499 12.7393 15.571C11.9328 14.9913 11.5195 14.2568 11.5195 13.5215ZM19.8671 16.9711C18.8125 17.6419 17.4565 18.0312 16 18.0312C14.5435 18.0312 13.1875 17.6419 12.1329 16.9711C11.726 17.436 11.5195 17.9537 11.5195 18.4756C11.5195 19.2109 11.9328 19.9454 12.7393 20.5252C13.5445 21.104 14.695 21.4854 16 21.4854C17.305 21.4854 18.4555 21.104 19.2607 20.5252C20.0672 19.9454 20.4805 19.2109 20.4805 18.4756C20.4805 17.9537 20.274 17.436 19.8671 16.9711Z" fill="white"/>
<rect x="23" y="19" width="15.36" height="16" rx="3.3" fill="#0052FF"/>
<path d="M30.6722 31.7992C33.2217 31.7992 35.2883 29.6504 35.2883 26.9992C35.2883 24.3481 33.2217 22.1992 30.6722 22.1992C28.2535 22.1992 26.2695 24.1338 26.0723 26.5956H32.1736V27.4028H26.0723C26.2695 29.8646 28.2535 31.7992 30.6722 31.7992Z" fill="white"/>
</svg>
