<svg width="39" height="35" viewBox="0 0 39 35" fill="none" xmlns="http://www.w3.org/2000/svg">
<rect width="32" height="32" rx="16" fill="#9999E3" fill-opacity="0.25" style="mix-blend-mode:overlay"/>
<path fill-rule="evenodd" clip-rule="evenodd" d="M16 9.01172C14.4163 9.01172 12.9515 9.47203 11.8637 10.2539C10.7772 11.035 10.0195 12.1803 10.0195 13.5215C10.0195 14.4631 10.393 15.3081 10.9915 15.9983C10.3933 16.6885 10.0195 17.5357 10.0195 18.4756C10.0195 19.8168 10.7772 20.9621 11.8637 21.7431C12.9515 22.525 14.4163 22.9854 16 22.9854C17.5837 22.9854 19.0485 22.525 20.1363 21.7431C21.2228 20.9621 21.9805 19.8168 21.9805 18.4756C21.9805 17.5357 21.6067 16.6885 21.0085 15.9983C21.607 15.3081 21.9805 14.4631 21.9805 13.5215C21.9805 12.1803 21.2228 11.035 20.1363 10.2539C19.0485 9.47203 17.5837 9.01172 16 9.01172ZM11.5195 13.5215C11.5195 12.7862 11.9328 12.0516 12.7393 11.4719C13.5445 10.8931 14.695 10.5117 16 10.5117C17.305 10.5117 18.4555 10.8931 19.2607 11.4719C20.0672 12.0516 20.4805 12.7862 20.4805 13.5215C20.4805 14.2568 20.0672 14.9913 19.2607 15.571C18.4555 16.1499 17.305 16.5312 16 16.5312C14.695 16.5312 13.5445 16.1499 12.7393 15.571C11.9328 14.9913 11.5195 14.2568 11.5195 13.5215ZM19.8671 16.9711C18.8125 17.6419 17.4565 18.0312 16 18.0312C14.5435 18.0312 13.1875 17.6419 12.1329 16.9711C11.726 17.436 11.5195 17.9537 11.5195 18.4756C11.5195 19.2109 11.9328 19.9454 12.7393 20.5252C13.5445 21.104 14.695 21.4854 16 21.4854C17.305 21.4854 18.4555 21.104 19.2607 20.5252C20.0672 19.9454 20.4805 19.2109 20.4805 18.4756C20.4805 17.9537 20.274 17.436 19.8671 16.9711Z" fill="white"/>
<rect x="23" y="19" width="15.36" height="16" rx="3.3" fill="#213147"/>
<g clip-path="url(#clip0_5921_152224)">
<path d="M26.4863 24.9097V29.091C26.4863 29.3598 26.6215 29.603 26.8468 29.7396L30.3243 31.8302C30.5455 31.9625 30.8199 31.9625 31.0411 31.8302L34.5186 29.7396C34.7398 29.6073 34.879 29.3598 34.879 29.091V24.9097C34.879 24.6409 34.7439 24.3977 34.5186 24.2612L31.0411 22.1705C30.8199 22.0382 30.5455 22.0382 30.3243 22.1705L26.8468 24.2612C26.6256 24.3934 26.4904 24.6409 26.4904 24.9097H26.4863Z" fill="#213147"/>
<path d="M31.4384 27.8115L30.9428 29.228C30.9305 29.2664 30.9305 29.3091 30.9428 29.3518L31.7948 31.788L32.7819 31.195L31.5982 27.8115C31.5695 27.7347 31.4671 27.7347 31.4384 27.8115Z" fill="#12AAFF"/>
<path d="M32.4341 25.4306C32.4054 25.3538 32.303 25.3538 32.2744 25.4306L31.7787 26.8472C31.7665 26.8856 31.7665 26.9282 31.7787 26.9709L33.1755 30.9602L34.1626 30.3672L32.4341 25.4349V25.4306Z" fill="#12AAFF"/>
<path d="M30.6809 22.3283C30.7055 22.3283 30.7301 22.3369 30.7506 22.3497L34.5107 24.611C34.5558 24.6366 34.5803 24.6878 34.5803 24.739V29.2617C34.5803 29.3129 34.5517 29.3641 34.5107 29.3897L30.7506 31.651C30.7301 31.6638 30.7055 31.6723 30.6809 31.6723C30.6564 31.6723 30.6318 31.6638 30.6113 31.651L26.8512 29.3897C26.8061 29.3641 26.7816 29.3129 26.7816 29.2617V24.7347C26.7816 24.6835 26.8102 24.6323 26.8512 24.6067L30.6113 22.3454C30.6318 22.3326 30.6564 22.3241 30.6809 22.3241V22.3283ZM30.6809 21.667C30.5458 21.667 30.4147 21.7011 30.2918 21.7737L26.5317 24.035C26.29 24.1801 26.1426 24.4446 26.1426 24.7347V29.2574C26.1426 29.5475 26.29 29.8121 26.5317 29.9571L30.2918 32.2185C30.4106 32.291 30.5458 32.3251 30.6809 32.3251C30.8161 32.3251 30.9472 32.291 31.0701 32.2185L34.8302 29.9571C35.0719 29.8121 35.2193 29.5475 35.2193 29.2574V24.7347C35.2193 24.4446 35.0719 24.1801 34.8302 24.035L31.066 21.7737C30.9472 21.7011 30.812 21.667 30.6769 21.667H30.6809Z" fill="#9DCCED"/>
<path d="M28.1914 30.9645L28.5396 29.9746L29.2359 30.5762L28.5846 31.1991L28.1914 30.9645Z" fill="#213147"/>
<path d="M30.3611 24.4144H29.4068C29.3371 24.4144 29.2716 24.4614 29.247 24.5296L27.2031 30.3664L28.1903 30.9595L30.4431 24.5296C30.4635 24.4699 30.4226 24.4102 30.3652 24.4102L30.3611 24.4144Z" fill="white"/>
<path d="M32.0328 24.4144H31.0784C31.0088 24.4144 30.9433 24.4614 30.9187 24.5296L28.584 31.1942L29.5711 31.7872L32.1106 24.5296C32.1311 24.4699 32.0902 24.4102 32.0328 24.4102V24.4144Z" fill="white"/>
</g>
<defs>
<clipPath id="clip0_5921_152224">
<rect width="10.24" height="10.6667" fill="white" transform="translate(25.5605 21.667)"/>
</clipPath>
</defs>
</svg>
