<svg width="39" height="35" viewBox="0 0 39 35" fill="none" xmlns="http://www.w3.org/2000/svg">
<rect width="32" height="32" rx="16" fill="#9999E3" fill-opacity="0.25" style="mix-blend-mode:overlay"/>
<path fill-rule="evenodd" clip-rule="evenodd" d="M16.001 9.01172C13.5259 9.01172 11.5195 11.0181 11.5195 13.4932C11.5195 15.9682 13.5259 17.9746 16.001 17.9746C18.476 17.9746 20.4824 15.9682 20.4824 13.4932C20.4824 11.0181 18.476 9.01172 16.001 9.01172ZM13.0195 13.4932C13.0195 11.8466 14.3544 10.5117 16.001 10.5117C17.6476 10.5117 18.9824 11.8466 18.9824 13.4932C18.9824 15.1398 17.6476 16.4746 16.001 16.4746C14.3544 16.4746 13.0195 15.1398 13.0195 13.4932Z" fill="white"/>
<path d="M10.5195 18.7812C10.5195 18.367 10.1837 18.0312 9.76953 18.0312C9.35532 18.0312 9.01953 18.367 9.01953 18.7812V21.2559C9.01953 21.6701 9.35532 22.0059 9.76953 22.0059H22.2324C22.6466 22.0059 22.9824 21.6701 22.9824 21.2559V18.7812C22.9824 18.367 22.6466 18.0312 22.2324 18.0312C21.8182 18.0312 21.4824 18.367 21.4824 18.7812V20.5059H10.5195V18.7812Z" fill="white"/>
<rect x="23" y="19" width="15.36" height="16" rx="3.3" fill="#0052FF"/>
<path d="M30.6722 31.7992C33.2217 31.7992 35.2883 29.6504 35.2883 26.9992C35.2883 24.3481 33.2217 22.1992 30.6722 22.1992C28.2535 22.1992 26.2695 24.1338 26.0723 26.5956H32.1736V27.4028H26.0723C26.2695 29.8646 28.2535 31.7992 30.6722 31.7992Z" fill="white"/>
</svg>
