<svg width="39" height="35" viewBox="0 0 39 35" fill="none" xmlns="http://www.w3.org/2000/svg">
<rect width="32" height="32" rx="16" fill="white" fill-opacity="0.25" style="mix-blend-mode:overlay"/>
<g clip-path="url(#clip0_5625_82171)">
<path fill-rule="evenodd" clip-rule="evenodd" d="M13.1021 18.8979C10.2539 18.7163 8 16.3486 8 13.4545C8 10.4421 10.4421 8 13.4545 8C16.3486 8 18.7163 10.2539 18.8979 13.1021C21.7461 13.2838 24 15.6514 24 18.5455C24 21.5579 21.5579 24 18.5455 24C15.6514 24 13.2838 21.7461 13.1021 18.8979ZM9.45455 13.4545C9.45455 11.2454 11.2454 9.45455 13.4545 9.45455C15.5787 9.45455 17.3162 11.1103 17.4467 13.2016C15.3158 13.6375 13.6375 15.3158 13.2016 17.4467C11.1103 17.3162 9.45455 15.5787 9.45455 13.4545ZM22.5455 18.5455C22.5455 20.7546 20.7546 22.5455 18.5455 22.5455C16.3363 22.5455 14.5455 20.7546 14.5455 18.5455C14.5455 16.3363 16.3363 14.5455 18.5455 14.5455C20.7546 14.5455 22.5455 16.3363 22.5455 18.5455Z" fill="white"/>
</g>
<rect x="23" y="19" width="15.36" height="16" rx="3.3" fill="#0052FF"/>
<path d="M30.6722 31.7992C33.2217 31.7992 35.2883 29.6504 35.2883 26.9992C35.2883 24.3481 33.2217 22.1992 30.6722 22.1992C28.2535 22.1992 26.2695 24.1338 26.0723 26.5956H32.1736V27.4028H26.0723C26.2695 29.8646 28.2535 31.7992 30.6722 31.7992Z" fill="white"/>
<defs>
<clipPath id="clip0_5625_82171">
<rect width="16" height="16" fill="white" transform="translate(8 8)"/>
</clipPath>
</defs>
</svg>
