<svg xmlns="http://www.w3.org/2000/svg" width="16" height="16" viewBox="0 0 16 16" fill="none">
  <g clip-path="url(#clip0_7008_277519)">
    <path d="M15.2627 10.9742C15.1981 11.1777 15.0903 11.3649 14.9467 11.5229C14.8031 11.681 14.6271 11.8063 14.4307 11.8901L6.33763 15.3507L6.15827 15.2655C3.95034 14.2172 2.90091 13.7079 2.39213 13.4504C2.13311 13.3193 2.0943 13.0061 2.29768 12.7989C2.44706 12.6467 2.67809 12.6095 2.86911 12.7043C3.62801 13.0807 5.21671 13.8421 6.35674 14.3834L14.0852 11.0785C14.1651 11.0445 14.2367 10.9936 14.2951 10.9293C14.3534 10.865 14.3973 10.7889 14.4235 10.7061C14.4497 10.6233 14.4578 10.5359 14.4471 10.4497C14.4364 10.3635 14.4073 10.2807 14.3616 10.2068C14.2867 10.0845 14.1705 9.99314 14.0341 9.94894C13.8977 9.90474 13.7501 9.91067 13.6177 9.96567L7.7328 12.387L5.31282 11.1536C5.09609 11.0431 5.00991 10.7779 5.12032 10.5611C5.23076 10.3443 5.49607 10.2581 5.71287 10.3686L7.77247 11.4181L8.79127 10.9977C8.63133 10.6737 8.4226 10.3763 8.17233 10.1156C6.57572 8.45874 3.63181 8.26941 1.74933 9.62421C1.582 9.74461 1.36214 9.77427 1.17729 9.68301L0.860834 9.52674C0.74824 9.47114 0.710047 9.32621 0.80848 9.24827C2.98574 7.29741 6.7978 7.41941 8.80747 9.50261C9.1348 9.84341 9.40527 10.2345 9.60867 10.6611L13.281 9.14974C13.5426 9.04194 13.8296 9.01101 14.1081 9.06074C14.3867 9.11041 14.6453 9.23861 14.8535 9.43027C15.0616 9.62194 15.2107 9.86901 15.2833 10.1425C15.3557 10.4161 15.3487 10.7046 15.2627 10.9742Z" fill="white" stroke="white" stroke-width="0.1"/>
    <path d="M13.2055 5.86885C13.207 6.80843 12.953 7.7293 12.4726 8.53363C12.403 8.65016 12.2755 8.71796 12.1397 8.71796C11.7942 8.71796 11.5948 8.2973 11.7644 7.99623C11.9614 7.6465 12.1096 7.26983 12.2036 6.8767C12.3664 6.1953 12.3618 5.48457 12.1901 4.80534C12.0183 4.12612 11.6845 3.49862 11.2174 2.97656C10.7501 2.45448 10.1634 2.0534 9.50735 1.8076C8.85128 1.56182 8.14542 1.47865 7.45015 1.56522C6.75495 1.6518 6.09104 1.90554 5.51528 2.30472C4.93953 2.7039 4.46906 3.23664 4.14416 3.85736C3.81926 4.47806 3.64958 5.16825 3.64966 5.86885C3.6493 6.1378 3.67436 6.40574 3.72425 6.6691C3.77882 6.95716 3.57189 7.24636 3.27871 7.24636C3.08617 7.24636 2.91547 7.11816 2.87608 6.9297C2.80324 6.58109 2.76682 6.22556 2.76759 5.86885C2.76759 4.4847 3.31744 3.15724 4.29618 2.1785C5.27492 1.19976 6.60238 0.649902 7.98655 0.649902C9.37068 0.649902 10.6982 1.19976 11.6769 2.1785C12.6556 3.15724 13.2055 4.4847 13.2055 5.86885Z" fill="white" stroke="white" stroke-width="0.1"/>
    <path d="M6.73538 5.90568H6.16211C6.2089 6.69824 6.95765 7.38717 8.28552 7.38717C9.60758 7.38717 10.4499 6.74484 10.4499 5.91604C10.4499 4.34129 7.76492 4.42935 7.76492 3.51766C7.76492 3.26383 7.98138 2.96338 8.48445 2.96338C9.04598 2.96338 9.70705 3.35189 9.75385 3.84918H10.3212C10.2627 3.04626 9.37945 2.48682 8.25632 2.48682C7.09218 2.48682 6.21476 3.08771 6.21476 3.93724C6.21476 5.55861 8.89978 5.34623 8.89978 6.34599C8.89978 6.6568 8.68332 6.91577 8.13932 6.91577C7.46072 6.91577 6.77632 6.49621 6.73538 5.90568ZM7.21505 3.6368C7.21505 4.86966 9.87665 4.6262 9.87665 5.94194C9.87665 6.33563 9.58418 6.6827 9.23318 6.77077C9.35605 6.66717 9.44965 6.43923 9.44965 6.22166C9.44965 5.00434 6.78218 5.1701 6.78218 3.9217C6.78218 3.50212 7.08638 3.16541 7.46658 3.0618C7.32032 3.21721 7.21505 3.41923 7.21505 3.6368Z" fill="white" stroke="white" stroke-width="0.1"/>
  </g>
  <defs>
    <clipPath id="clip0_7008_277519">
      <rect width="16" height="16" fill="white"/>
    </clipPath>
  </defs>
</svg>