<svg width="40" height="35" viewBox="0 0 40 35" fill="none" xmlns="http://www.w3.org/2000/svg">
<rect width="32" height="32" rx="16" fill="white" fill-opacity="0.25" style="mix-blend-mode:overlay"/>
<path fill-rule="evenodd" clip-rule="evenodd" d="M16.001 9.01172C13.5259 9.01172 11.5195 11.0181 11.5195 13.4932C11.5195 15.9682 13.5259 17.9746 16.001 17.9746C18.476 17.9746 20.4824 15.9682 20.4824 13.4932C20.4824 11.0181 18.476 9.01172 16.001 9.01172ZM13.0195 13.4932C13.0195 11.8466 14.3544 10.5117 16.001 10.5117C17.6476 10.5117 18.9824 11.8466 18.9824 13.4932C18.9824 15.1398 17.6476 16.4746 16.001 16.4746C14.3544 16.4746 13.0195 15.1398 13.0195 13.4932Z" fill="white"/>
<path d="M10.5195 18.7812C10.5195 18.367 10.1837 18.0312 9.76953 18.0312C9.35532 18.0312 9.01953 18.367 9.01953 18.7812V21.2559C9.01953 21.6701 9.35532 22.0059 9.76953 22.0059H22.2324C22.6466 22.0059 22.9824 21.6701 22.9824 21.2559V18.7812C22.9824 18.367 22.6466 18.0312 22.2324 18.0312C21.8182 18.0312 21.4824 18.367 21.4824 18.7812V20.5059H10.5195V18.7812Z" fill="white"/>
<rect x="24" y="19" width="15.36" height="16" rx="3.3" fill="#F2F4F7"/>
<path d="M28.3203 27.1076L31.9189 29.2833V25.4326L28.3203 27.1076Z" fill="white" fill-opacity="0.602"/>
<g opacity="0.6">
<mask id="mask0_8564_313501" style="mask-type:luminance" maskUnits="userSpaceOnUse" x="27" y="25" width="9" height="5">
<g opacity="0.6">
<path d="M27.8398 25.2646H35.6964V29.544H27.8398V25.2646Z" fill="white"/>
</g>
</mask>
<g mask="url(#mask0_8564_313501)">
<path d="M31.7689 25.2646L27.8398 27.126L31.7689 29.544L35.6964 27.126L31.7689 25.2646Z" fill="#010101"/>
</g>
</g>
<g opacity="0.45">
<mask id="mask1_8564_313501" style="mask-type:luminance" maskUnits="userSpaceOnUse" x="27" y="20" width="5" height="10">
<g opacity="0.45">
<path d="M27.8398 20.333H31.7689V29.5417H27.8398V20.333Z" fill="white"/>
</g>
</mask>
<g mask="url(#mask1_8564_313501)">
<path d="M27.8398 27.1237L31.7689 29.5417V20.333L27.8398 27.1237Z" fill="#010101"/>
</g>
</g>
<g opacity="0.8">
<mask id="mask2_8564_313501" style="mask-type:luminance" maskUnits="userSpaceOnUse" x="31" y="20" width="5" height="10">
<g opacity="0.8">
<path d="M31.7734 20.333H35.7025V29.5417H31.7734V20.333Z" fill="white"/>
</g>
</mask>
<g mask="url(#mask2_8564_313501)">
<path d="M31.7734 20.333V29.5417L35.7009 27.1237L31.7734 20.333Z" fill="#010101"/>
</g>
</g>
<g opacity="0.45">
<mask id="mask3_8564_313501" style="mask-type:luminance" maskUnits="userSpaceOnUse" x="27" y="27" width="5" height="7">
<g opacity="0.45">
<path d="M27.8398 27.9014H31.7689V33.6672H27.8398V27.9014Z" fill="white"/>
</g>
</mask>
<g mask="url(#mask3_8564_313501)">
<path d="M27.8398 27.9014L31.7689 33.6673V30.3194L27.8398 27.9014Z" fill="#010101"/>
</g>
</g>
<g opacity="0.8">
<mask id="mask4_8564_313501" style="mask-type:luminance" maskUnits="userSpaceOnUse" x="31" y="27" width="5" height="7">
<g opacity="0.8">
<path d="M31.7734 27.9014H35.704V33.6672H31.7734V27.9014Z" fill="white"/>
</g>
</mask>
<g mask="url(#mask4_8564_313501)">
<path d="M31.7734 30.3194V33.6672L35.704 27.9014L31.7734 30.3194Z" fill="#010101"/>
</g>
</g>
<path fill-rule="evenodd" clip-rule="evenodd" d="M27.8983 0.0737051C27.0782 0.274261 26.4795 0.872664 25.8916 2.07943C25.2809 3.33291 24.9985 4.84239 25 6.84477C25.002 9.49454 25.6298 11.3751 26.67 11.8476C27.2496 12.1108 28.1267 12.0253 28.6816 11.6513C29.3512 11.2 29.7525 10.3791 30.0675 8.81636C30.2149 8.08453 30.2347 7.76156 30.2023 6.61155C30.1604 5.12934 30.1013 4.83765 29.5602 3.43915C29.3751 2.96079 29.2065 2.45262 29.1856 2.30979C29.132 1.94453 29.2999 1.49769 29.5605 1.31208C30.1156 0.91676 30.7022 1.03068 32.4982 1.88271C34.4829 2.82417 35.4447 3.77485 35.4499 4.80001C35.4521 5.21092 35.3639 5.4087 35.0142 5.77813C34.657 6.1554 33.9528 6.34787 32.4826 6.46995L31.2692 6.57072L31.2392 7.1015C31.2227 7.39344 31.188 7.9034 31.1621 8.2347C31.1229 8.73707 31.1346 8.82967 31.2322 8.79227C31.835 8.56093 33.7802 7.98368 34.431 7.84289C34.8801 7.7458 35.4396 7.61114 35.6742 7.54369C36.5019 7.3059 36.9052 6.75012 36.9814 5.74269C37.0241 5.17834 37.01 5.10672 36.7584 4.61113C36.0152 3.14681 34.2126 1.87267 31.2133 0.691543C29.5929 0.053372 28.6784 -0.117052 27.8983 0.0737051ZM30.1931 2.10671C30.17 2.14411 30.296 2.54391 30.4731 2.99525C30.7552 3.71377 31.0093 4.5725 31.1651 5.33382L31.2128 5.56671L31.9645 5.51306C34.3062 5.34598 34.7885 5.09741 34.2754 4.32205C33.8756 3.71793 32.7024 2.9861 31.1454 2.36957C30.2193 2.00275 30.2518 2.01174 30.1931 2.10671ZM26.9581 5.94014C26.5591 6.33913 26.3876 6.90936 26.3876 7.83644C26.3876 8.66039 26.536 9.23029 26.8714 9.69314C27.3963 10.4178 28.0998 10.3064 28.5515 9.42717C28.7839 8.97502 28.7965 8.89949 28.7965 7.96473C28.7965 7.10183 28.7723 6.92553 28.6025 6.54973C28.3471 5.98473 27.9459 5.63163 27.5592 5.63163C27.3296 5.63163 27.2002 5.69802 26.9581 5.94014ZM27.4503 7.05708C27.2526 7.65622 27.4634 9.16137 27.7104 8.91435C27.921 8.70383 27.884 7.19917 27.661 6.89409C27.562 6.7587 27.5443 6.77233 27.4503 7.05708Z" fill="white"/>
</svg>
