<svg xmlns="http://www.w3.org/2000/svg" width="16" height="16" viewBox="0 0 16 16" fill="none">
  <path d="M10.7256 8.46511C11.3447 7.91343 11.7811 7.18746 11.977 6.38328C12.1729 5.5791 12.1191 4.73461 11.8227 3.96155C11.5264 3.1885 11.0014 2.52332 10.3173 2.05404C9.63314 1.58476 8.82212 1.3335 7.99154 1.3335C7.16095 1.3335 6.34994 1.58476 5.66582 2.05404C4.9817 2.52332 4.45672 3.1885 4.16035 3.96155C3.86397 4.73461 3.81018 5.5791 4.00608 6.38328C4.20198 7.18746 4.63835 7.91343 5.25743 8.46511C4.11211 8.86467 3.11953 9.60863 2.41675 10.5943C1.71396 11.5799 1.33563 12.7586 1.33398 13.9677C1.33398 14.1531 1.40792 14.3309 1.53952 14.462C1.67113 14.5932 1.84962 14.6668 2.03574 14.6668C2.22186 14.6668 2.40035 14.5932 2.53195 14.462C2.66356 14.3309 2.73749 14.1531 2.73749 13.9677C2.7387 12.7904 3.20862 11.6617 4.04413 10.8293C4.87964 9.99687 6.0125 9.52869 7.19409 9.52748H8.80721C9.98881 9.52869 11.1217 9.99687 11.9572 10.8293C12.7927 11.6617 13.2626 12.7904 13.2638 13.9677C13.2638 14.1531 13.3377 14.3309 13.4693 14.462C13.601 14.5932 13.7794 14.6668 13.9656 14.6668C14.1517 14.6668 14.3302 14.5932 14.4618 14.462C14.5934 14.3309 14.6673 14.1531 14.6673 13.9677C14.6644 12.7564 14.2834 11.5761 13.5771 10.5902C12.8709 9.60429 11.8744 8.86163 10.7256 8.46511ZM7.99154 2.76734C8.52238 2.76734 9.0413 2.92417 9.48268 3.218C9.92406 3.51184 10.2681 3.92947 10.4712 4.4181C10.6744 4.90673 10.7275 5.4444 10.6239 5.96312C10.5204 6.48185 10.2648 6.95832 9.8894 7.3323C9.51404 7.70628 9.0358 7.96096 8.51516 8.06414C7.99451 8.16732 7.45485 8.11437 6.96442 7.91197C6.47399 7.70958 6.05481 7.36683 5.75989 6.92708C5.46497 6.48733 5.30755 5.97032 5.30755 5.44143C5.30755 5.09027 5.37698 4.74254 5.51186 4.4181C5.64674 4.09367 5.84444 3.79888 6.09367 3.55056C6.59702 3.04907 7.2797 2.76734 7.99154 2.76734Z" fill="white"/>
</svg>