<svg xmlns="http://www.w3.org/2000/svg" width="16" height="16" viewBox="0 0 16 16" fill="none">
  <g clip-path="url(#clip0_7008_277584)">
    <path d="M15.3859 12.8986L9.24972 6.76763C9.03505 6.55904 8.69172 6.56162 8.47965 6.77283C8.26765 6.98483 8.26419 7.32736 8.47192 7.54283L14.6081 13.679C14.8236 13.8936 15.1721 13.8928 15.3867 13.6782C15.6014 13.4627 15.6014 13.1132 15.3859 12.8986Z" fill="white" stroke="white" stroke-width="0.2"/>
    <path d="M11.8563 2.12951L10.9773 1.25046C10.1961 0.47185 8.9324 0.47185 8.15134 1.25046L2.93879 6.43882C2.16103 7.21917 2.16103 8.48277 2.93879 9.26324L3.81784 10.1422C4.59817 10.9217 5.86351 10.9217 6.64375 10.1422L11.8563 4.94444C12.628 4.16497 12.628 2.90993 11.8563 2.12951ZM11.0699 4.1666L5.87457 9.38157C5.52259 9.7309 4.95432 9.7309 4.60234 9.38157L3.7233 8.5025C3.55418 8.33424 3.4589 8.10504 3.4589 7.86637C3.4589 7.62777 3.55419 7.39857 3.7233 7.2303L8.92287 2.01095C9.274 1.6607 9.84227 1.6607 10.1933 2.01095L11.0724 2.89C11.2424 3.05911 11.3377 3.28918 11.3368 3.52867C11.3368 3.76817 11.2408 3.99835 11.0699 4.1666Z" fill="white" stroke="white" stroke-width="0.2"/>
    <path d="M11.1203 14.3789H1.5494C1.24638 14.3789 1 14.6252 1 14.9283C1 15.2322 1.24638 15.4777 1.5494 15.4777H11.1203C11.4241 15.4777 11.6697 15.2322 11.6697 14.9283C11.6697 14.6252 11.4241 14.3789 11.1203 14.3789Z" fill="white" stroke="white" stroke-width="0.2"/>
  </g>
  <defs>
    <clipPath id="clip0_7008_277584">
      <rect width="16" height="16" fill="white"/>
    </clipPath>
  </defs>
</svg>