<svg xmlns="http://www.w3.org/2000/svg" width="16" height="16" viewBox="0 0 16 16" fill="none">
  <g clip-path="url(#clip0_6974_125023)">
    <path d="M13.7728 11.3342C14.5091 10.0589 14.8024 8.57573 14.6071 7.11617C14.4117 5.65661 13.7386 4.30279 12.6929 3.26601C11.6471 2.22923 10.2875 1.56784 8.82629 1.38505C7.36506 1.20227 5.88443 1.50839 4.61549 2.25563L6.3071 5.12813C6.94157 4.75451 7.68189 4.60145 8.4125 4.69284C9.14311 4.78423 9.82291 5.11493 10.3458 5.63332C10.8687 6.15171 11.2052 6.82862 11.3029 7.5584C11.4006 8.28818 11.2539 9.02977 10.8857 9.66741L13.7728 11.3342Z" stroke="white" stroke-width="1.0304" stroke-linejoin="round"/>
    <path d="M2.20584 4.70347C1.47945 5.98047 1.19524 7.46166 1.3974 8.91682C1.59955 10.372 2.27674 11.7196 3.32372 12.7503C4.3707 13.7809 5.72882 14.4369 7.18702 14.6162C8.64521 14.7955 10.1218 14.4881 11.3873 13.7418L9.69396 10.8706C9.06121 11.2438 8.32292 11.3975 7.59383 11.3079C6.86473 11.2182 6.18567 10.8902 5.66218 10.3749C5.13869 9.85958 4.80009 9.18576 4.69902 8.45818C4.59794 7.7306 4.74004 6.99 5.10324 6.3515L2.20584 4.70347Z" stroke="white" stroke-width="1.0303" stroke-linejoin="round"/>
  </g>
  <defs>
    <clipPath id="clip0_6974_125023">
      <rect width="16" height="16" fill="white"/>
    </clipPath>
  </defs>
</svg>