<svg xmlns="http://www.w3.org/2000/svg" width="16" height="16" viewBox="0 0 16 16" fill="none">
  <g clip-path="url(#clip0_7008_277551)">
    <path d="M15.2646 10.9626C15.2 11.1659 15.0923 11.3528 14.9489 11.5107C14.8054 11.6685 14.6296 11.7936 14.4335 11.8773L6.35033 15.3338L6.1712 15.2486C3.96596 14.2016 2.91781 13.693 2.40966 13.4357C2.15096 13.3048 2.11219 12.9919 2.31532 12.7851C2.46452 12.6331 2.69527 12.5959 2.88605 12.6905C3.64402 13.0665 5.23079 13.8269 6.36942 14.3676L14.0884 11.0668C14.1682 11.0328 14.2397 10.9819 14.298 10.9177C14.3563 10.8535 14.4001 10.7775 14.4263 10.6948C14.4525 10.6121 14.4606 10.5248 14.4499 10.4387C14.4392 10.3526 14.4101 10.2699 14.3645 10.1961C14.2896 10.074 14.1736 9.98267 14.0374 9.93854C13.9012 9.89441 13.7537 9.90034 13.6215 9.95527L7.74376 12.3736L5.32678 11.1417C5.11031 11.0314 5.02424 10.7665 5.13451 10.5501C5.24482 10.3335 5.5098 10.2474 5.72634 10.3577L7.78343 11.406L8.80096 10.9861C8.64123 10.6625 8.43276 10.3653 8.18283 10.1051C6.58814 8.45021 3.64782 8.26114 1.76764 9.61421C1.60052 9.73447 1.38092 9.76414 1.19631 9.67294L0.880236 9.51687C0.767776 9.46134 0.729629 9.31661 0.827943 9.23874C3.00254 7.29027 6.8099 7.41214 8.81709 9.49281C9.14403 9.83314 9.41423 10.2238 9.61736 10.6498L13.2852 9.14041C13.5465 9.03267 13.8332 9.00181 14.1114 9.05147C14.3896 9.10107 14.6478 9.22914 14.8558 9.42054C15.0637 9.61194 15.2126 9.85874 15.285 10.1319C15.3574 10.4051 15.3504 10.6933 15.2646 10.9626Z" fill="white" stroke="white" stroke-width="0.1"/>
    <path d="M13.2045 5.86247C13.2059 6.8009 12.9523 7.72063 12.4725 8.52403C12.4029 8.64036 12.2755 8.7081 12.14 8.7081C11.7949 8.7081 11.5957 8.28796 11.7651 7.98723C11.9619 7.63796 12.1098 7.26176 12.2037 6.8691C12.3664 6.18852 12.3618 5.47866 12.1903 4.80026C12.0187 4.12187 11.6854 3.49514 11.2187 2.97371C10.7521 2.45228 10.1661 2.05168 9.51082 1.80619C8.85555 1.5607 8.15055 1.47764 7.45615 1.5641C6.76181 1.65058 6.0987 1.904 5.52365 2.3027C4.9486 2.70139 4.47871 3.23348 4.1542 3.85343C3.82969 4.47338 3.66022 5.16272 3.66031 5.86247C3.65994 6.1311 3.68497 6.3987 3.7348 6.66176C3.7893 6.9495 3.58263 7.2383 3.28981 7.2383C3.0975 7.2383 2.92701 7.11023 2.88768 6.92203C2.81492 6.57384 2.77854 6.21875 2.77931 5.86247C2.77931 4.48001 3.32849 3.15418 4.30604 2.17663C5.28358 1.19908 6.60942 0.649902 7.99188 0.649902C9.37435 0.649902 10.7001 1.19908 11.6777 2.17663C12.6553 3.15418 13.2045 4.48001 13.2045 5.86247Z" fill="white" stroke="white" stroke-width="0.1"/>
    <path fill-rule="evenodd" clip-rule="evenodd" d="M10.3572 3.79614C10.4875 3.91236 10.4875 4.1008 10.3572 4.21704L7.59555 6.6808C7.53295 6.7366 7.44808 6.768 7.35955 6.768C7.27108 6.768 7.18622 6.7366 7.12362 6.6808L5.65828 5.37377C5.52797 5.25754 5.52797 5.0691 5.65828 4.95287C5.78858 4.83664 5.99984 4.83664 6.13015 4.95287L7.35955 6.04944L9.88528 3.79617C10.0156 3.67993 10.2269 3.67992 10.3572 3.79614Z" fill="white" stroke="white" stroke-width="0.183539" stroke-linecap="round" stroke-linejoin="round"/>
  </g>
  <defs>
    <clipPath id="clip0_7008_277551">
      <rect width="16" height="16" fill="white"/>
    </clipPath>
  </defs>
</svg>