<svg xmlns="http://www.w3.org/2000/svg" width="16" height="16" viewBox="0 0 16 16" fill="none">
  <path d="M7.25 9.64539L3.61529 5.50374C3.3224 5.21084 2.84752 5.21084 2.55463 5.50374C2.26174 5.79663 2.26174 6.2715 2.55463 6.5644L8 12.0098L13.4454 6.5644C13.7383 6.2715 13.7383 5.79663 13.4454 5.50374C13.1525 5.21084 12.6776 5.21084 12.3847 5.50374L8.75 9.64539L8.75 1.74609C8.75 1.33188 8.41421 0.996094 8 0.996094C7.58579 0.996094 7.25 1.33188 7.25 1.74609L7.25 9.64539Z" fill="white"/>
  <path d="M2.05078 14.2422C2.05078 13.828 2.38657 13.4922 2.80078 13.4922H13.1992C13.6134 13.4922 13.9492 13.828 13.9492 14.2422C13.9492 14.6564 13.6134 14.9922 13.1992 14.9922H2.80078C2.38657 14.9922 2.05078 14.6564 2.05078 14.2422Z" fill="white"/>
</svg>