<svg xmlns="http://www.w3.org/2000/svg" width="16" height="16" viewBox="0 0 16 16" fill="none">
  <path fill-rule="evenodd" clip-rule="evenodd" d="M8.00098 1.01172C5.52594 1.01172 3.51953 3.01813 3.51953 5.49316C3.51953 7.9682 5.52594 9.97461 8.00098 9.97461C10.476 9.97461 12.4824 7.9682 12.4824 5.49316C12.4824 3.01813 10.476 1.01172 8.00098 1.01172ZM5.01953 5.49316C5.01953 3.84656 6.35437 2.51172 8.00098 2.51172C9.64758 2.51172 10.9824 3.84656 10.9824 5.49316C10.9824 7.13977 9.64758 8.47461 8.00098 8.47461C6.35437 8.47461 5.01953 7.13977 5.01953 5.49316Z" fill="white"/>
  <path d="M2.51953 10.7812C2.51953 10.367 2.18374 10.0312 1.76953 10.0312C1.35532 10.0312 1.01953 10.367 1.01953 10.7812V13.2559C1.01953 13.6701 1.35532 14.0059 1.76953 14.0059H14.2324C14.6466 14.0059 14.9824 13.6701 14.9824 13.2559V10.7812C14.9824 10.367 14.6466 10.0312 14.2324 10.0312C13.8182 10.0312 13.4824 10.367 13.4824 10.7812V12.5059H2.51953V10.7812Z" fill="white"/>
</svg>