<svg xmlns="http://www.w3.org/2000/svg" width="16" height="16" viewBox="0 0 16 16" fill="none">
  <path fill-rule="evenodd" clip-rule="evenodd" d="M8.40072 1.05604C7.46683 0.669206 6.4392 0.567994 5.44779 0.765199C4.45637 0.962403 3.5457 1.44917 2.83093 2.16394C2.11616 2.87871 1.6294 3.78939 1.43219 4.7808C1.23499 5.77221 1.3362 6.79984 1.72303 7.73372C2.09882 8.64099 2.72774 9.42013 3.53388 9.97872C3.70698 12.6447 5.92417 14.7535 8.63392 14.7535C11.3273 14.7535 13.5342 12.6699 13.7306 10.0267C15.098 9.11053 16.0001 7.54992 16.0001 5.77788C16.0001 2.95521 13.7119 0.666992 10.8892 0.666992C10.0934 0.666992 9.33865 0.849335 8.66585 1.1748C8.57878 1.13279 8.49038 1.09318 8.40072 1.05604ZM11.0946 3.70002C10.99 3.43895 10.8584 3.18379 10.6945 2.93843C10.4919 2.63541 10.2587 2.35649 9.99945 2.10555C10.2845 2.03678 10.5824 2.00033 10.8892 2.00033C12.9755 2.00033 14.6668 3.69159 14.6668 5.77788C14.6668 7.13419 13.9523 8.32439 12.8763 8.99132L12.7485 9.06406C12.1989 9.37666 11.5632 9.55552 10.8837 9.55552C10.5788 9.55552 10.2824 9.51939 9.99845 9.45119C10.9582 8.52246 11.5559 7.22021 11.5559 5.77788V5.45587L11.5242 5.43074C11.4829 4.81787 11.3333 4.23467 11.0946 3.70002ZM8.09945 2.38197L8.32118 2.5112C8.99785 2.90561 9.54092 3.50355 9.86638 4.22027C9.97245 4.49169 10.0417 4.78367 10.0809 5.09341L6.35058 5.00053L6.16536 4.99592L6.00432 5.08754C4.85881 5.73923 4.07734 6.85917 3.73097 8.12866C3.70969 8.19939 3.68988 8.27079 3.67158 8.34279C3.36996 8.01666 3.12664 7.63819 2.95487 7.22348C2.66896 6.53323 2.59414 5.77369 2.7399 5.04092C2.88566 4.30815 3.24544 3.63505 3.77374 3.10675C4.30204 2.57845 4.97514 2.21867 5.70791 2.07291C6.44068 1.92715 7.20022 2.00197 7.89048 2.28788C7.96122 2.31718 8.03092 2.34857 8.09945 2.38197ZM7.1498 6.35418L10.1666 6.42928C9.99539 7.41453 9.44252 8.26926 8.66432 8.83512C7.86722 8.25546 7.30554 7.37166 7.1498 6.35418ZM4.86044 9.82032L4.86188 9.61532C4.86454 9.23693 4.91421 8.86859 5.00569 8.51979C5.18222 7.92859 5.49641 7.40079 5.91359 6.97432C6.23187 8.30139 7.06784 9.42706 8.19598 10.1259C8.22972 10.1617 8.28085 10.2079 8.35052 10.2479C9.09918 10.6772 9.96692 10.9225 10.8899 10.9225C11.3608 10.9225 11.8163 10.8597 12.2493 10.7409C11.7789 12.2915 10.3382 13.4201 8.63392 13.4201C6.60718 13.4201 4.95326 11.8241 4.86044 9.82032Z" fill="white"/>
</svg>