<svg xmlns="http://www.w3.org/2000/svg" width="16" height="16" viewBox="0 0 16 16" fill="none">
  <path fill-rule="evenodd" clip-rule="evenodd" d="M8.4459 0.851203C8.19964 0.604937 7.80036 0.604937 7.5541 0.851203L2.1847 6.2206C1.93843 6.46687 1.93843 6.86614 2.1847 7.11241L7.5541 12.4818C7.80036 12.7281 8.19964 12.7281 8.4459 12.4818L13.8153 7.11241C14.0616 6.86614 14.0616 6.46687 13.8153 6.2206L8.4459 0.851203ZM4.11203 6.07689L8 2.18892L11.888 6.07689H4.11203ZM4.10992 7.25401L8 11.1441L11.8901 7.25401H4.10992Z" fill="white"/>
  <path d="M2.66667 14C2.29848 14 2 14.2985 2 14.6667C2 15.0349 2.29848 15.3333 2.66667 15.3333H13.3333C13.7015 15.3333 14 15.0349 14 14.6667C14 14.2985 13.7015 14 13.3333 14H2.66667Z" fill="white"/>
</svg>