<svg xmlns="http://www.w3.org/2000/svg" width="16" height="16" viewBox="0 0 16 16" fill="none">
  <g clip-path="url(#clip0_3600_226355)">
    <path fill-rule="evenodd" clip-rule="evenodd" d="M5.10211 10.8979C2.2539 10.7163 0 8.34861 0 5.45455C0 2.44208 2.44208 0 5.45455 0C8.34861 0 10.7163 2.2539 10.8979 5.10211C13.7461 5.28375 16 7.65139 16 10.5455C16 13.5579 13.5579 16 10.5455 16C7.65139 16 5.28375 13.7461 5.10211 10.8979ZM1.45455 5.45455C1.45455 3.24541 3.24541 1.45455 5.45455 1.45455C7.57873 1.45455 9.31619 3.11032 9.44668 5.20162C7.3158 5.63745 5.63745 7.3158 5.20162 9.44668C3.11032 9.31619 1.45455 7.57873 1.45455 5.45455ZM14.5455 10.5455C14.5455 12.7546 12.7546 14.5455 10.5455 14.5455C8.33632 14.5455 6.54545 12.7546 6.54545 10.5455C6.54545 8.33632 8.33632 6.54545 10.5455 6.54545C12.7546 6.54545 14.5455 8.33632 14.5455 10.5455Z" fill="white"/>
  </g>
  <defs>
    <clipPath id="clip0_3600_226355">
      <rect width="16" height="16" fill="white"/>
    </clipPath>
  </defs>
</svg>