<svg width="39" height="35" viewBox="0 0 39 35" fill="none" xmlns="http://www.w3.org/2000/svg">
<rect width="32" height="32" rx="16" fill="#9999E3" fill-opacity="0.25" style="mix-blend-mode:overlay"/>
<path fill-rule="evenodd" clip-rule="evenodd" d="M19.5537 12.522C19.5537 13.1844 19.441 13.8197 19.2339 14.3942C19.8354 14.5022 20.4421 14.7225 21.015 15.0532C22.036 15.6428 22.8067 16.5005 23.2086 17.4413C23.6106 18.3824 23.657 19.4548 23.1254 20.3756C22.5937 21.2965 21.6418 21.7925 20.6258 21.9149C19.6101 22.0372 18.4819 21.7987 17.4608 21.2092C16.8878 20.8783 16.3939 20.4632 15.9998 19.9966C15.6055 20.4634 15.1116 20.8785 14.5388 21.2092C13.5177 21.7987 12.3896 22.0372 11.3739 21.9149C10.3579 21.7925 9.40596 21.2965 8.8743 20.3756C8.34263 19.4548 8.38908 18.3824 8.79106 17.4413C9.19293 16.5005 9.9636 15.6428 10.9847 15.0532C11.5577 14.7224 12.1641 14.5023 12.7653 14.3943C12.558 13.8192 12.4454 13.1837 12.4454 12.522C12.4454 11.343 12.8029 10.2467 13.4167 9.42828C14.0307 8.60962 14.9362 8.0332 15.9996 8.0332C17.0629 8.0332 17.9684 8.60962 18.5824 9.42828C19.1962 10.2467 19.5537 11.343 19.5537 12.522ZM17.3824 10.3283C17.7834 10.863 18.0537 11.6362 18.0537 12.522C18.0537 13.2383 17.8769 13.8825 17.5957 14.3863C16.8429 14.5256 16.1429 14.8779 15.6468 15.4649C15.2795 15.3688 14.9206 15.121 14.6167 14.7158C14.2157 14.181 13.9454 13.4079 13.9454 12.522C13.9454 11.6362 14.2157 10.863 14.6167 10.3283C15.0176 9.79376 15.5142 9.5332 15.9996 9.5332C16.4849 9.5332 16.9815 9.79376 17.3824 10.3283ZM16.8662 16.3538C17.1268 17.0774 17.0819 17.8601 16.8258 18.5822C17.1213 19.0767 17.5902 19.5518 18.2108 19.9101C18.978 20.3531 19.7827 20.5056 20.4463 20.4256C21.1097 20.3457 21.5836 20.0459 21.8263 19.6256C22.069 19.2053 22.0916 18.645 21.8292 18.0305C21.5666 17.4158 21.0321 16.7952 20.265 16.3523C19.4978 15.9093 18.6931 15.7568 18.0295 15.8368C17.5269 15.8973 17.1331 16.084 16.8662 16.3538ZM11.7347 16.3523C12.3552 15.994 13.001 15.8254 13.577 15.8168C14.0748 16.4001 14.7298 16.8303 15.487 16.9663C15.587 17.3322 15.5518 17.7665 15.353 18.2319C15.0904 18.8466 14.556 19.4672 13.7888 19.9101C13.0216 20.3531 12.217 20.5056 11.5533 20.4256C10.8899 20.3457 10.416 20.0459 10.1733 19.6256C9.93066 19.2053 9.90802 18.645 10.1705 18.0305C10.4331 17.4158 10.9675 16.7952 11.7347 16.3523Z" fill="white"/>
<rect x="23" y="19" width="16" height="16" rx="4" fill="#FF0420"/>
<path d="M28.6673 29.125C28.1905 29.125 27.8001 29.013 27.4961 28.789C27.1953 28.5618 27.0449 28.2354 27.0449 27.8162C27.0449 27.7266 27.0545 27.621 27.0737 27.493C27.1249 27.205 27.1985 26.8594 27.2945 26.453C27.5665 25.3522 28.2705 24.8018 29.4033 24.8018C29.7105 24.8018 29.9889 24.853 30.2321 24.9586C30.4753 25.0578 30.6673 25.2114 30.8081 25.4162C30.9489 25.6178 31.0193 25.8578 31.0193 26.1362C31.0193 26.2194 31.0097 26.325 30.9905 26.453C30.9297 26.8082 30.8593 27.157 30.7729 27.493C30.6321 28.0402 30.3921 28.453 30.0465 28.725C29.7041 28.9938 29.2433 29.125 28.6673 29.125ZM28.7537 28.261C28.9777 28.261 29.1665 28.1938 29.3233 28.0626C29.4833 27.9314 29.5985 27.7298 29.6657 27.4546C29.7585 27.077 29.8289 26.7506 29.8769 26.469C29.8929 26.3858 29.9025 26.2994 29.9025 26.2098C29.9025 25.845 29.7137 25.6626 29.3329 25.6626C29.1089 25.6626 28.9169 25.7298 28.7569 25.861C28.6001 25.9922 28.4881 26.1938 28.4209 26.469C28.3473 26.7378 28.2769 27.0642 28.2033 27.4546C28.1873 27.5346 28.1777 27.6178 28.1777 27.7074C28.1745 28.0786 28.3697 28.261 28.7537 28.261Z" fill="white"/>
<path d="M31.2978 29.0671C31.253 29.0671 31.221 29.0543 31.1954 29.0255C31.1762 28.9935 31.1698 28.9583 31.1762 28.9167L32.005 25.0127C32.0114 24.9679 32.0338 24.9327 32.0722 24.9039C32.1074 24.8751 32.1458 24.8623 32.1874 24.8623H33.7842C34.229 24.8623 34.5842 24.9551 34.853 25.1375C35.125 25.3231 35.2626 25.5887 35.2626 25.9375C35.2626 26.0367 35.2498 26.1423 35.2274 26.2511C35.1282 26.7119 34.9266 27.0511 34.6194 27.2719C34.3186 27.4927 33.9058 27.6015 33.381 27.6015H32.5714L32.2962 28.9167C32.2866 28.9615 32.2674 28.9967 32.229 29.0255C32.1938 29.0543 32.1554 29.0671 32.1138 29.0671H31.2978ZM33.4226 26.7727C33.5922 26.7727 33.7362 26.7279 33.861 26.6351C33.989 26.5423 34.0722 26.4111 34.1138 26.2383C34.1266 26.1711 34.133 26.1103 34.133 26.0591C34.133 25.9439 34.0978 25.8543 34.0306 25.7935C33.9634 25.7295 33.845 25.6975 33.6818 25.6975H32.9618L32.7346 26.7727H33.4226Z" fill="white"/>
</svg>
