<svg width="39" height="35" viewBox="0 0 39 35" fill="none" xmlns="http://www.w3.org/2000/svg">
<rect width="32" height="32" rx="16" fill="#9999E3" fill-opacity="0.25" style="mix-blend-mode:overlay"/>
<path fill-rule="evenodd" clip-rule="evenodd" d="M16.001 9.01172C13.5259 9.01172 11.5195 11.0181 11.5195 13.4932C11.5195 15.9682 13.5259 17.9746 16.001 17.9746C18.476 17.9746 20.4824 15.9682 20.4824 13.4932C20.4824 11.0181 18.476 9.01172 16.001 9.01172ZM13.0195 13.4932C13.0195 11.8466 14.3544 10.5117 16.001 10.5117C17.6476 10.5117 18.9824 11.8466 18.9824 13.4932C18.9824 15.1398 17.6476 16.4746 16.001 16.4746C14.3544 16.4746 13.0195 15.1398 13.0195 13.4932Z" fill="white"/>
<path d="M10.5195 18.7812C10.5195 18.367 10.1837 18.0312 9.76953 18.0312C9.35532 18.0312 9.01953 18.367 9.01953 18.7812V21.2559C9.01953 21.6701 9.35532 22.0059 9.76953 22.0059H22.2324C22.6466 22.0059 22.9824 21.6701 22.9824 21.2559V18.7812C22.9824 18.367 22.6466 18.0312 22.2324 18.0312C21.8182 18.0312 21.4824 18.367 21.4824 18.7812V20.5059H10.5195V18.7812Z" fill="white"/>
<rect x="23" y="19" width="16" height="16" rx="4" fill="#FF0420"/>
<path d="M28.6673 29.125C28.1905 29.125 27.8001 29.013 27.4961 28.789C27.1953 28.5618 27.0449 28.2354 27.0449 27.8162C27.0449 27.7266 27.0545 27.621 27.0737 27.493C27.1249 27.205 27.1985 26.8594 27.2945 26.453C27.5665 25.3522 28.2705 24.8018 29.4033 24.8018C29.7105 24.8018 29.9889 24.853 30.2321 24.9586C30.4753 25.0578 30.6673 25.2114 30.8081 25.4162C30.9489 25.6178 31.0193 25.8578 31.0193 26.1362C31.0193 26.2194 31.0097 26.325 30.9905 26.453C30.9297 26.8082 30.8593 27.157 30.7729 27.493C30.6321 28.0402 30.3921 28.453 30.0465 28.725C29.7041 28.9938 29.2433 29.125 28.6673 29.125ZM28.7537 28.261C28.9777 28.261 29.1665 28.1938 29.3233 28.0626C29.4833 27.9314 29.5985 27.7298 29.6657 27.4546C29.7585 27.077 29.8289 26.7506 29.8769 26.469C29.8929 26.3858 29.9025 26.2994 29.9025 26.2098C29.9025 25.845 29.7137 25.6626 29.3329 25.6626C29.1089 25.6626 28.9169 25.7298 28.7569 25.861C28.6001 25.9922 28.4881 26.1938 28.4209 26.469C28.3473 26.7378 28.2769 27.0642 28.2033 27.4546C28.1873 27.5346 28.1777 27.6178 28.1777 27.7074C28.1745 28.0786 28.3697 28.261 28.7537 28.261Z" fill="white"/>
<path d="M31.2978 29.0671C31.253 29.0671 31.221 29.0543 31.1954 29.0255C31.1762 28.9935 31.1698 28.9583 31.1762 28.9167L32.005 25.0127C32.0114 24.9679 32.0338 24.9327 32.0722 24.9039C32.1074 24.8751 32.1458 24.8623 32.1874 24.8623H33.7842C34.229 24.8623 34.5842 24.9551 34.853 25.1375C35.125 25.3231 35.2626 25.5887 35.2626 25.9375C35.2626 26.0367 35.2498 26.1423 35.2274 26.2511C35.1282 26.7119 34.9266 27.0511 34.6194 27.2719C34.3186 27.4927 33.9058 27.6015 33.381 27.6015H32.5714L32.2962 28.9167C32.2866 28.9615 32.2674 28.9967 32.229 29.0255C32.1938 29.0543 32.1554 29.0671 32.1138 29.0671H31.2978ZM33.4226 26.7727C33.5922 26.7727 33.7362 26.7279 33.861 26.6351C33.989 26.5423 34.0722 26.4111 34.1138 26.2383C34.1266 26.1711 34.133 26.1103 34.133 26.0591C34.133 25.9439 34.0978 25.8543 34.0306 25.7935C33.9634 25.7295 33.845 25.6975 33.6818 25.6975H32.9618L32.7346 26.7727H33.4226Z" fill="white"/>
</svg>
